<svg xmlns="http://www.w3.org/2000/svg" viewBox="0 0 19 19" enable-background="new 0 0 19 19"><style type="text/css">.icon-asx-blue{fill:#0081E4;}</style><path class="icon-asx-blue" d="M5 8h-3v-1h3v1zm0 2h-3v1h3v-1zm0 3h-3v1h3v-1zm6-6h-3v1h3v-1zm8-5v7h-1v-3h-5v1h-1v-1h-5v10h1v1h-8v-15h19zm-13 4h-5v10h5v-10zm11.407 6.347l1.535.256v2.396l-1.519.253-.017.043-.018.044.894 1.252-1.693 1.693-1.267-.905-.07.029-.257 1.535h-2.394l-.253-1.519-.044-.017-.043-.018-1.252.894-1.694-1.692.905-1.268-.029-.07-1.535-.257v-2.394l1.518-.253.018-.044.019-.043-.894-1.252 1.694-1.694 1.266.905.07-.029.256-1.535h2.396l.252 1.519.044.017.044.019 1.253-.894 1.692 1.694-.905 1.266.028.069zm.535 1.103l-1.291-.216-.093-.293c-.052-.168-.119-.329-.2-.484l-.144-.272.762-1.066-.495-.495-1.067.763-.387-.207-.114-.062-.002-.001-.122-.036-.423-.127-.216-1.297h-.7l-.216 1.294-.295.091c-.167.052-.327.118-.483.199l-.272.144-1.066-.762-.495.495.763 1.068-.208.388-.061.114-.036.122-.127.423-1.297.217v.7l1.294.216.091.295c.052.167.118.326.199.481l.144.272-.762 1.066.495.495 1.068-.763.388.208.114.062.126.038.419.126.217 1.295h.7l.216-1.292.293-.092c.168-.052.328-.119.483-.2l.272-.144 1.067.762.494-.494-.763-1.068.207-.387.062-.114.04-.13.124-.417 1.296-.216v-.699zm-2.174.35c0 1.085-.883 1.968-1.968 1.968s-1.967-.883-1.967-1.968.882-1.967 1.967-1.967 1.968.882 1.968 1.967zm-1 0c0-.533-.435-.967-.968-.967s-.967.434-.967.967.434.968.967.968.968-.435.968-.968z"/></svg>