<?xml version="1.0" encoding="utf-8"?>
<!-- Generator: Adobe Illustrator 21.1.0, SVG Export Plug-In . SVG Version: 6.00 Build 0)  -->
<svg version="1.1" id="Layer_1" xmlns="http://www.w3.org/2000/svg" xmlns:xlink="http://www.w3.org/1999/xlink" x="0px" y="0px"
	 viewBox="0 0 19 19" style="enable-background:new 0 0 19 19;" xml:space="preserve">
<style type="text/css">
	.icon_x002D_asx_x002D_blue{fill:#0081E4;}
	.icon_x002D_canvas_x002D_transparent{opacity:0;fill:#F6F6F6;fill-opacity:0;}
</style>
<path id="canvas" class="icon_x002D_canvas_x002D_transparent" d="M19,0v19H0V0H19z"/>
<path class="icon_x002D_asx_x002D_blue" d="M3.976,17c-0.528,0-1.024-0.206-1.398-0.579c-0.373-0.373-0.579-0.868-0.579-1.396
	c0-0.529,0.206-1.024,0.58-1.397l4.805-4.806C7.149,8.242,7.026,7.615,7.023,6.991C7.023,4.238,9.261,2,12.012,2
	c0.728,0,1.447,0.167,2.139,0.498l0.598,0.285l-2.943,2.943l1.467,1.467l2.944-2.944l0.284,0.6c0.331,0.695,0.498,1.414,0.498,2.139
	c0,2.751-2.238,4.989-4.989,4.989c-0.621,0-1.237-0.123-1.833-0.363L5.373,16.42C5,16.794,4.504,17,3.976,17z M12.012,2.937
	c-2.234,0-4.051,1.818-4.051,4.052c0.002,0.595,0.141,1.195,0.403,1.733l0.145,0.3l-5.268,5.27
	c-0.196,0.196-0.304,0.456-0.304,0.734c0,0.277,0.108,0.537,0.304,0.733c0.392,0.392,1.076,0.392,1.468,0l5.267-5.268l0.299,0.143
	c0.565,0.27,1.149,0.406,1.736,0.406c2.234,0,4.051-1.817,4.051-4.051c0-0.367-0.054-0.735-0.161-1.098l-2.628,2.628L10.48,5.726
	l2.629-2.628C12.747,2.991,12.38,2.937,12.012,2.937z"/>
<g>
</g>
<g>
</g>
<g>
</g>
<g>
</g>
<g>
</g>
<g>
</g>
<g>
</g>
<g>
</g>
<g>
</g>
<g>
</g>
<g>
</g>
<g>
</g>
<g>
</g>
<g>
</g>
<g>
</g>
</svg>
