<svg xmlns="http://www.w3.org/2000/svg" viewBox="0 0 19 19" enable-background="new 0 0 19 19"><style type="text/css">.icon-asx-blue{fill:#0081E4;}</style><path class="icon-asx-blue" d="M7.335 12.656c-.19-.132-.372-.282-.541-.451-1.492-1.491-1.492-3.918 0-5.411l5.174-5.174c1.492-1.491 3.918-1.492 5.41 0 .724.723 1.122 1.684 1.122 2.706s-.398 1.982-1.121 2.705l-1.881 1.881-.707-.707 1.881-1.881c.534-.533.828-1.243.828-1.998 0-.755-.294-1.465-.828-1.999-1.102-1.102-2.895-1.102-3.996 0l-5.175 5.174c-1.102 1.102-1.102 2.895 0 3.997.125.126.26.237.401.334l-.567.824zm-.304 4.723l5.174-5.174c1.491-1.491 1.491-3.918 0-5.411-.151-.151-.314-.289-.482-.41l-.582.813c.126.09.245.191.357.303 1.102 1.102 1.102 2.895 0 3.997l-5.174 5.174c-1.067 1.067-2.929 1.069-3.997 0-1.102-1.102-1.102-2.895 0-3.996l1.881-1.882-.707-.707-1.881 1.882c-1.492 1.491-1.492 3.919 0 5.41.723.724 1.684 1.122 2.706 1.122s1.983-.398 2.705-1.121z"/></svg>