<svg id="Layer_1" xmlns="http://www.w3.org/2000/svg" viewBox="0 0 19 19"><style>.icon-asx-blue{fill:#0081e4}.canvas{opacity:0;fill:#f6f6f6}</style><path class="canvas" d="M19 19H0V0h19v19z"/><path class="icon-asx-blue" d="M9.5 7c-.331 0-.644.067-.942.166.296-.353.546-.734.734-1.145.07-.004.137-.021.208-.021 2.206 0 4 1.794 4 4s-1.794 4-4 4c-2.116 0-3.836-1.656-3.974-3.739L6.638 9.15A2.954 2.954 0 0 0 6.5 10c0 1.654 1.346 3 3 3s3-1.346 3-3-1.346-3-3-3zm3.707-3l-1-1H9.67c.051.288.09.58.091.878 0 .041-.01.081-.011.122h2.043l1 1H17v10H2v-3.268l-1-1V16h17V4h-4.793zM4 3H1.717L2.73 1.986C3.757.959 5.428.96 6.499 2.031a2.636 2.636 0 0 1 0 3.723L2.321 9.932l.707.707 4.178-4.178c1.416-1.416 1.416-3.721-.045-5.182a3.637 3.637 0 0 0-5.137 0L1 2.303V0H0v4h4V3z"/></svg>