<svg xmlns="http://www.w3.org/2000/svg" viewBox="0 0 19 19" enable-background="new 0 0 19 19"><style type="text/css">.icon-asx-blue{fill:#0081E4;}</style><path class="icon-asx-blue" d="M18.022.978c-1.14-1.14-3.128-1.142-4.269 0l-12.201 12.201-1.423 5.693 5.693-1.424 12.2-12.201c1.177-1.177 1.177-3.092 0-4.269zm-15.188 12.334l10.229-10.23 2.855 2.855-10.23 10.23c-.375-1.391-1.464-2.479-2.854-2.855zm-.509.899c1.253.226 2.238 1.212 2.464 2.465l-3.286.821.822-3.286zm14.3-8.981l-2.856-2.855.69-.69c.764-.764 2.095-.762 2.855 0 .787.787.787 2.068 0 2.855l-.689.69z"/></svg>