<?xml version="1.0" encoding="utf-8"?>
<!-- Generator: Adobe Illustrator 16.0.0, SVG Export Plug-In . SVG Version: 6.00 Build 0)  -->
<!DOCTYPE svg PUBLIC "-//W3C//DTD SVG 1.1//EN" "http://www.w3.org/Graphics/SVG/1.1/DTD/svg11.dtd">
<svg version="1.1" id="Layer_1" xmlns="http://www.w3.org/2000/svg" xmlns:xlink="http://www.w3.org/1999/xlink" x="0px" y="0px"
	 width="642.355px" height="592.428px" viewBox="-15.306 99.939 642.355 592.428"
	 enable-background="new -15.306 99.939 642.355 592.428" xml:space="preserve">
<title>CosmosDB_rgb_mono_lighttheme</title>
<g>
	<path fill="#414141" d="M83.051,287.66c-7.5,0-13.645-6.125-13.668-13.654c-0.112-34.657-28.363-62.862-63.002-62.941
		c-0.171,0.006-0.342,0.01-0.512,0.01c-7.252,0-13.249-5.673-13.652-12.917c-0.419-7.528,5.365-13.996,12.894-14.417
		c0.255-0.014,0.508-0.021,0.762-0.021c0.168,0,0.337,0.003,0.506,0.009c34.706-0.083,62.94-28.286,63.043-62.94
		c0-0.13,0.004-0.261,0.011-0.392c0.402-7.266,6.415-12.957,13.688-12.957c0.254,0,0.509,0.007,0.766,0.021
		c6.986,0.388,12.546,5.948,12.935,12.933c0.007,0.131,0.011,0.261,0.012,0.392c0.112,34.707,28.438,62.942,63.144,62.942h0.105
		c7.554,0,13.689,6.132,13.694,13.669c0.004,7.54-6.127,13.68-13.667,13.686h-0.132c-34.706,0-63.032,28.236-63.144,62.942
		c-0.047,7.528-6.191,13.634-13.696,13.634C83.122,287.66,83.067,287.66,83.051,287.66z"/>
	<path fill="#F6F6F6" d="M83.121,114.939c0.116,0,0.232,0.003,0.35,0.01c3.162,0.176,5.687,2.7,5.862,5.861
		c0.126,38.932,31.727,70.418,70.644,70.418c0.041,0,0.077,0,0.118,0c0.001,0,0.002,0,0.003,0c3.411,0,6.176,2.763,6.178,6.174
		c0.002,3.412-2.762,6.179-6.174,6.182c-0.002,0-0.005,0-0.008,0c-0.038,0-0.08,0-0.118,0c-38.92,0-70.518,31.483-70.644,70.418
		c-0.021,3.409-2.791,6.158-6.196,6.158c-0.013,0-0.026,0-0.04,0c-0.006,0-0.014,0-0.02,0c-3.413,0-6.185-2.761-6.196-6.178
		c-0.126-38.928-31.72-70.417-70.646-70.418c-0.007,0-0.013,0-0.02,0c-0.117,0.006-0.233,0.01-0.349,0.01
		c-3.255,0-5.98-2.544-6.163-5.834c-0.189-3.406,2.418-6.321,5.824-6.512c0.114-0.006,0.229-0.01,0.343-0.01s0.229,0.003,0.344,0.01
		c0.026,0,0.054,0,0.08,0c38.918,0,70.509-31.489,70.625-70.418C77.104,117.5,79.847,114.939,83.121,114.939 M83.121,99.939
		c-11.253,0-20.556,8.804-21.177,20.043c-0.015,0.261-0.022,0.522-0.023,0.783c-0.091,30.515-24.936,55.354-55.424,55.462
		c-0.208-0.006-0.417-0.009-0.625-0.009c-0.393,0-0.784,0.011-1.176,0.033c-11.661,0.652-20.617,10.665-19.969,22.322
		c0.624,11.215,9.91,20.001,21.14,20.001c0.206,0,0.413-0.003,0.62-0.009c30.481,0.146,55.296,24.972,55.395,55.466
		c0.037,11.65,9.545,21.129,21.196,21.129c0.007,0,0.016,0,0.024,0h0.035c11.614,0,21.123-9.449,21.195-21.064
		c0.099-30.63,25.061-55.512,55.645-55.512h0.095c11.718-0.01,21.211-9.516,21.205-21.19c-0.007-11.67-9.507-21.165-21.178-21.165
		h-0.121c-30.583,0-55.545-24.882-55.644-55.466c-0.001-0.262-0.009-0.523-0.023-0.784c-0.601-10.805-9.202-19.405-20.007-20.006
		C83.906,99.95,83.513,99.939,83.121,99.939L83.121,99.939z"/>
</g>
<g>
	<path fill="#414141" d="M519.148,684.867c-6.148,0-11.178-5.002-11.21-11.151c-0.077-19.09-15.664-34.614-34.745-34.614
		c-6.206,0-11.228-5.013-11.236-11.176c-0.004-2.989,1.156-5.802,3.267-7.918c2.111-2.117,4.92-3.285,7.909-3.289
		c19.142,0,34.729-15.523,34.806-34.604c0-6.151,5.028-11.181,11.21-11.181s11.21,5.029,11.21,11.211
		c0.078,19.051,15.666,34.574,34.746,34.574c6.209,0,11.229,5.015,11.235,11.18c0.009,6.167-5.004,11.194-11.175,11.203
		c-19.142,0-34.729,15.524-34.807,34.606c0,6.14-5.02,11.159-11.19,11.159H519.148z"/>
	<path fill="#F6F6F6" d="M519.148,578.433c2.049,0,3.71,1.661,3.71,3.711c0.096,23.265,18.985,42.074,42.246,42.074
		c0.015,0,0.025,0,0.04,0c0.001,0,0.003,0,0.004,0c2.036,0,3.689,1.649,3.691,3.687c0.003,2.039-1.647,3.693-3.686,3.696
		c-0.004,0-0.007,0-0.01,0c-0.013,0-0.027,0-0.04,0c-23.263,0-42.15,18.808-42.246,42.075c0,2.038-1.652,3.69-3.69,3.69
		c-0.007,0-0.013,0-0.02,0c-2.042,0-3.699-1.649-3.71-3.69c-0.095-23.266-18.984-42.073-42.245-42.075c-0.015,0-0.025,0-0.04,0
		c-0.001,0-0.003,0-0.004,0c-2.037,0-3.689-1.649-3.692-3.687c-0.003-2.038,1.647-3.693,3.687-3.696c0.003,0,0.006,0,0.01,0
		c0.013,0,0.027,0,0.04,0c23.263,0,42.15-18.808,42.245-42.074C515.438,580.094,517.099,578.433,519.148,578.433 M519.148,563.433
		c-10.297,0-18.677,8.361-18.71,18.651c-0.061,14.961-12.283,27.134-27.245,27.134c-0.008,0-0.064,0-0.071,0
		c-4.992,0.007-9.684,1.958-13.209,5.493s-5.463,8.232-5.456,13.225c0.015,10.292,8.4,18.665,18.692,18.665
		c15.006,0.001,27.229,12.174,27.289,27.137c0.055,10.28,8.447,18.629,18.71,18.629c10.313,0,18.689-8.363,18.71-18.652
		c0.075-14.952,12.292-27.113,27.246-27.113c0.008,0,0.064,0,0.071,0c4.992-0.007,9.683-1.958,13.208-5.492
		c3.525-3.536,5.463-8.232,5.456-13.226c-0.01-10.289-8.395-18.665-18.691-18.665c-14.998,0-27.215-12.161-27.29-27.112
		C537.837,571.806,529.451,563.433,519.148,563.433L519.148,563.433z"/>
</g>
<g>
	<path fill="#414141" d="M309.673,623.161c-32.511,0-63.849-7.412-93.142-22.028c-2.654-1.324-4.278-4.088-4.144-7.05
		c0.134-2.963,2.001-5.568,4.764-6.647c52.816-20.628,103.991-46.305,152.103-76.316c0.029-0.018,0.058-0.036,0.087-0.054
		c48.571-29.392,94.646-63.492,136.944-101.355c1.402-1.256,3.192-1.912,5.004-1.912c1.042,0,2.091,0.217,3.078,0.661
		c2.704,1.219,4.437,3.915,4.42,6.881c-0.181,31.803-7.781,63.654-21.98,92.111c-17.674,35.421-44.827,64.934-78.525,85.35
		c-32.783,19.861-70.342,30.36-108.606,30.36C309.673,623.161,309.675,623.161,309.673,623.161z"/>
	<path fill="#F6F6F6" d="M511.287,415.298c-0.175,30.833-7.425,61.215-21.191,88.805C454.83,574.78,383.633,615.661,309.673,615.661
		c-30.224,0-60.911-6.828-89.793-21.239c53.384-20.85,104.718-46.606,153.344-76.939
		C422.315,487.776,468.535,453.567,511.287,415.298 M511.29,400.298c-3.623,0-7.201,1.312-10.008,3.823
		c-41.952,37.555-87.65,71.377-135.824,100.528c-0.058,0.035-0.116,0.07-0.174,0.106c-47.719,29.767-98.476,55.234-150.861,75.694
		c-5.525,2.157-9.259,7.368-9.528,13.293c-0.268,5.926,2.98,11.452,8.288,14.101c30.343,15.141,62.807,22.817,96.49,22.817
		c39.638,0,78.537-10.874,112.494-31.446c34.913-21.151,63.043-51.725,81.351-88.415c14.709-29.479,22.582-62.474,22.77-95.417
		c0.033-5.932-3.432-11.326-8.84-13.762C515.473,400.731,513.374,400.298,511.29,400.298L511.29,400.298z"/>
</g>
<g>
	<path fill="#414141" d="M89.773,630.609c-39.87,0-68.047-11.631-81.486-33.636c-12.843-21.001-11.142-49.792,4.923-83.256
		c16.227-33.801,47.054-71.775,89.148-109.818c1.407-1.271,3.208-1.936,5.03-1.936c1.058,0,2.122,0.224,3.122,0.682
		c2.724,1.247,4.444,3.997,4.375,6.992c-0.352,15.194,1.103,30.431,4.326,45.284c0.542,2.502-0.229,5.107-2.045,6.912
		c-59.753,59.334-71.461,97.199-64.752,108.174c3.781,6.186,16.115,9.733,33.839,9.732c23.897-0.001,55.645-6.226,91.815-18.001
		c60.22-20.587,118.104-48.148,172.051-81.922c0.041-0.025,0.082-0.05,0.123-0.075c54.456-32.649,105.215-71.573,150.873-115.694
		c10.142-10.121,17.875-18.313,24.333-25.778c43.82-50.632,44.29-76.654,40.773-82.408c-2.646-4.329-13.309-9.383-34.651-9.397
		c-19.271,0.445-38.493,3.173-57.13,8.107c-0.039,0.011-0.079,0.021-0.118,0.03c-10.721,2.654-22.291,6.037-35.372,10.344
		c-0.768,0.252-1.559,0.376-2.345,0.376c-1.699,0-3.373-0.577-4.729-1.678c-11.608-9.426-24.309-17.527-37.746-24.077
		c-2.682-1.307-4.334-4.079-4.207-7.06c0.126-2.98,2.008-5.603,4.79-6.678c21.875-8.452,44.5-15.654,67.247-21.409
		c26.242-6.427,49.717-9.679,69.825-9.679c38.276,0,64.715,11.503,78.58,34.191c14.76,24.136,18.811,68.56-45.71,143.115
		c-15.069,17.152-31.283,33.535-48.227,48.736c-42.993,38.492-89.819,73.154-139.184,103.03
		c-48.913,30.509-100.938,56.606-154.627,77.567c-42.256,17.469-86.845,27.301-132.531,29.221
		C89.983,630.607,89.878,630.609,89.773,630.609z"/>
	<path fill="#F6F6F6" d="M531.786,202.242c35.219,0,59.755,10.271,72.181,30.603c19.297,31.557,3.711,78.03-44.981,134.296
		c-14.891,16.947-30.772,32.996-47.564,48.062c-42.763,38.285-88.996,72.507-138.102,102.223
		c-48.672,30.362-100.058,56.14-153.497,76.997c-41.337,17.099-85.355,26.809-130.05,28.688c-37.581,0-63.323-10.786-75.085-30.045
		c-22.491-36.777,5.681-104.958,92.699-183.601c-0.366,15.806,1.143,31.599,4.494,47.048
		c-54.679,54.296-77.055,99.105-65.866,117.408c5.289,8.652,19.247,13.32,40.238,13.32c23.415,0,55.579-5.813,94.191-18.388
		c60.866-20.804,119.134-48.546,173.654-82.678c55.04-33,106.129-72.18,152.273-116.777c8.836-8.816,17.27-17.576,24.748-26.221
		c42.075-48.615,48.653-79.521,41.501-91.226c-4.36-7.134-17.442-12.986-41.138-12.986c-19.915,0.453-39.706,3.259-58.963,8.357
		c-11.513,2.85-23.6,6.445-35.916,10.5c-12.067-9.799-25.215-18.186-39.188-24.996c21.682-8.377,43.85-15.434,66.383-21.134
		C489.575,205.38,512.311,202.242,531.786,202.242 M531.786,187.242c-20.709,0-44.783,3.324-71.555,9.881
		c-0.037,0.009-0.073,0.018-0.11,0.027c-23.038,5.828-45.954,13.124-68.11,21.684c-5.565,2.15-9.327,7.395-9.58,13.356
		c-0.253,5.961,3.051,11.505,8.414,14.12c12.925,6.3,25.14,14.091,36.304,23.157c2.711,2.201,6.06,3.355,9.457,3.355
		c1.572,0,3.155-0.247,4.689-0.752c12.721-4.188,24.439-7.615,34.83-10.187c0.078-0.02,0.156-0.04,0.234-0.06
		c18.04-4.776,36.642-7.42,55.293-7.858c18.769,0.025,26.665,4.2,28.156,5.818c0.564,1.562,0.913,8.051-4.092,20.064
		c-4.393,10.544-14.193,28.388-35.938,53.513c-6.328,7.315-13.929,15.366-23.916,25.334
		c-45.237,43.709-95.526,82.269-149.477,114.615c-0.083,0.05-0.165,0.101-0.246,0.151c-53.442,33.456-110.786,60.763-170.439,81.161
		c-44.737,14.561-73.333,17.618-89.448,17.618c-19.43,0-26.396-4.435-27.44-6.144c-1.152-1.884-1.85-10.985,8.611-30.216
		c10.9-20.038,29.928-43.803,55.026-68.726c3.633-3.607,5.175-8.819,4.09-13.823c-3.097-14.275-4.496-28.918-4.157-43.521
		c0.139-5.991-3.301-11.489-8.75-13.985c-2-0.916-4.129-1.363-6.244-1.363c-3.646,0-7.247,1.328-10.061,3.871
		c-42.811,38.69-74.236,77.467-90.881,112.137c-21.755,45.317-14.486,74.184-4.558,90.419
		c10.367,16.975,34.034,37.219,87.882,37.219c0.21,0,0.42-0.005,0.63-0.014c46.54-1.956,91.963-11.967,135.012-29.755
		c54.083-21.118,106.484-47.404,155.759-78.136c49.743-30.11,96.933-65.044,140.253-103.827
		c17.175-15.409,33.599-32.005,48.827-49.336c0.024-0.028,0.049-0.057,0.074-0.085c25.522-29.493,42.637-56.901,50.867-81.464
		c9.081-27.104,7.59-50.814-4.432-70.473c-7.838-12.825-19.446-22.555-34.501-28.917
		C568.352,190.223,551.369,187.242,531.786,187.242L531.786,187.242z"/>
</g>
<g>
	<path fill="#414141" d="M157.686,554.645c-2.122,0-4.183-0.901-5.629-2.543c-44.67-50.723-62.112-120.286-46.655-186.084
		c9.931-41.38,31.854-78.298,63.408-106.798c38.642-34.902,88.576-54.124,140.604-54.124c59.295,0,116.083,25.22,155.802,69.195
		c16.654,18.511,29.713,39.634,38.823,62.793c1.074,2.731,0.457,5.838-1.58,7.951c-3.61,3.746-6.817,7.008-10.093,10.267
		c-0.026,0.026-0.053,0.052-0.079,0.077c-44.952,43.426-94.936,81.729-148.556,113.839
		c-53.116,33.206-110.083,60.363-169.322,80.716c-0.04,0.014-0.081,0.027-0.121,0.041c-4.404,1.43-8.46,2.61-12.382,3.752
		l-2.116,0.617C159.096,554.547,158.387,554.645,157.686,554.645z"/>
	<path fill="#F6F6F6" d="M309.413,212.595c55.247,0,110.288,22.495,150.236,66.723c15.988,17.771,28.658,38.267,37.409,60.512
		c-3.079,3.194-6.331,6.521-9.983,10.155c-44.622,43.107-94.031,80.967-147.263,112.838
		c-52.723,32.967-109.033,59.813-167.841,80.019c-5.068,1.646-9.639,2.945-14.286,4.304
		c-43.151-48.997-59.913-115.853-44.982-179.412c9.527-39.696,30.838-75.583,61.134-102.947
		C212.547,229.822,261.058,212.595,309.413,212.595 M309.413,197.595c-53.889,0-105.608,19.909-145.63,56.059
		c-32.681,29.519-55.388,67.756-65.666,110.578c-0.005,0.023-0.011,0.047-0.017,0.07c-16.011,68.157,2.056,140.215,48.328,192.756
		c2.892,3.283,7.016,5.087,11.258,5.087c1.403,0,2.819-0.197,4.207-0.604l2.106-0.613c3.977-1.158,8.089-2.355,12.604-3.821
		c0.081-0.026,0.162-0.053,0.242-0.081c59.755-20.53,117.217-47.919,170.798-81.41c54.088-32.397,104.508-71.037,149.854-114.844
		c0.053-0.051,0.105-0.103,0.157-0.154c3.314-3.298,6.557-6.596,10.204-10.379c4.073-4.226,5.308-10.439,3.159-15.901
		c-9.44-23.997-22.971-45.884-40.217-65.053c-20.992-23.241-46.068-41.292-74.553-53.671
		C368.738,203.658,339.522,197.595,309.413,197.595L309.413,197.595z"/>
</g>
</svg>
