<?xml version="1.0" encoding="utf-8"?>
<!-- Generator: Adobe Illustrator 16.0.0, SVG Export Plug-In . SVG Version: 6.00 Build 0)  -->
<!DOCTYPE svg PUBLIC "-//W3C//DTD SVG 1.1//EN" "http://www.w3.org/Graphics/SVG/1.1/DTD/svg11.dtd">
<svg version="1.1" id="图层_1" xmlns="http://www.w3.org/2000/svg" xmlns:xlink="http://www.w3.org/1999/xlink" x="0px" y="0px"
	 width="1523.938px" height="1376.775px" viewBox="0 0 1523.938 1376.775" enable-background="new 0 0 1523.938 1376.775"
	 xml:space="preserve">
<g>
	<rect x="123.427" y="102.267" fill="#F6F6F6" width="1307.739" height="1127.775"/>
	<path fill="#414141" stroke="#F6F6F6" stroke-width="50" stroke-miterlimit="10" d="M578.316,688.979
		c-25.901,0-50.038-4.909-72.401-14.715c-22.372-9.813-41.794-23.156-58.275-40.029c-16.481-16.873-29.627-36.497-39.439-58.862
		c-9.813-22.37-14.715-46.113-14.715-71.224c0-25.117,4.902-48.86,14.715-71.225c9.812-22.37,22.958-41.794,39.439-58.273
		c16.481-16.488,35.903-29.633,58.275-39.44c22.364-9.812,46.5-14.716,72.401-14.716c25.116,0,48.853,4.904,71.223,14.716
		c22.365,9.807,41.794,22.953,58.275,39.44c16.481,16.479,29.628,35.903,39.439,58.273c9.807,22.365,14.716,46.108,14.716,71.225
		c0,25.11-4.909,48.854-14.716,71.224c-9.811,22.365-22.958,41.989-39.439,58.862c-16.481,16.873-35.91,30.216-58.275,40.029
		C627.168,684.07,603.432,688.979,578.316,688.979L578.316,688.979z M1498.938,1351.775H25V25h1473.938V1351.775z M1351.775,172.156
		H173.333v910.026c14.128-20.401,29.83-40.813,47.095-61.216c17.265-20.401,35.315-38.852,54.156-55.332
		c18.833-16.481,38.257-30.02,58.273-40.617c20.012-10.597,40.218-15.891,60.628-15.891c24.331,0,45.322,1.764,62.979,5.294
		c17.666,3.536,33.361,8.048,47.095,13.54c13.736,5.497,26.484,11.576,38.258,18.251c11.773,6.668,24.527,12.754,38.263,18.247
		c13.734,5.49,29.233,10.008,46.5,13.537c17.265,3.53,38.065,5.298,62.398,5.298c24.325,0,45.324-7.259,62.982-21.778
		c17.656-14.52,33.941-32.771,48.853-54.743c14.918-21.979,29.83-45.52,44.742-70.637c14.911-25.116,31.784-48.657,50.618-70.636
		c18.841-21.977,41.205-40.225,67.106-54.744c25.9-14.52,57.293-21.775,94.184-21.775c31.392,0,61.607,9.609,90.646,28.843
		c29.039,19.228,55.921,44.146,80.645,74.756c24.718,30.606,47.481,64.744,68.276,102.419
		c20.802,37.677,39.048,74.559,54.744,110.665V172.156z M1351.775,172.156"/>
</g>
</svg>
