<?xml version="1.0" encoding="utf-8"?>
<!-- Generator: Adobe Illustrator 16.0.0, SVG Export Plug-In . SVG Version: 6.00 Build 0)  -->
<!DOCTYPE svg PUBLIC "-//W3C//DTD SVG 1.1//EN" "http://www.w3.org/Graphics/SVG/1.1/DTD/svg11.dtd">
<svg version="1.1" id="Layer_1" xmlns="http://www.w3.org/2000/svg" xmlns:xlink="http://www.w3.org/1999/xlink" x="0px" y="0px"
	 width="364.62px" height="230.211px" viewBox="-176.12 -107.556 364.62 230.211"
	 enable-background="new -176.12 -107.556 364.62 230.211" xml:space="preserve">
<g>
	<g>
		<path fill="#414141" d="M-166.26,114.655l26.143-124.159h-17.548l7.921-35.6h17.593l2.769-11.064
			c2.774-16.117,11.256-26.163,17.414-32.33c7.352-7.34,18.784-11.058,33.988-11.058c7.355,0,14.96,0,21.001,3.021l4.99,2.496
			l-4.073,36.567l-10.266-5.15c-2.66-1.334-5.668-1.334-9.477-1.334c-3.086,0-4.061,0.544-6.666,1.999
			c-0.823,0.459-1.755,0.979-2.829,1.516c-0.677,0.485-2.111,3.484-2.111,8.083v1.296l-1.257,3.775h24.794l-7.547,37.784h-26.212
			l-26.133,124.159H-166.26z"/>
		<path fill="#F6F6F6" d="M-77.981-91.556c6.527,0,13.072,0,17.423,2.176l-2.184,19.606c-4.353-2.184-8.712-2.184-13.063-2.184
			c-6.535,0-8.718,2.184-13.071,4.359c-4.359,2.184-6.535,8.712-6.535,15.239l-4.351,13.072h26.133l-4.351,21.784h-26.143
			l-26.133,124.159H-156.4l26.143-124.159h-17.433l4.361-19.6h17.422l4.359-17.423c2.176-13.071,8.712-21.782,15.239-28.318
			C-99.763-89.38-88.877-91.556-77.981-91.556 M-77.981-107.556c-17.4,0-30.734,4.504-39.632,13.389
			c-10.775,10.791-17.187,22.68-19.601,36.339l-1.182,4.725h-4.933h-12.831l-2.787,12.525l-4.361,19.6l-4.333,19.475h17.665
			l-22.08,104.862l-4.063,19.297h19.72h26.143h12.983l2.674-12.704L-91.141-1.503h13.16h13.12l2.57-12.866l4.351-21.784
			l2.417-12.099l6.14,3.08l2.543-22.83l2.184-19.606l1.235-11.091l-9.981-4.991C-61.132-107.556-70.083-107.556-77.981-107.556
			L-77.981-107.556z M-76.814-55.904c0.019,0,0.321-0.053,1.008-0.053c2.531,0,4.922,0,5.89,0.485l0.368,0.185h-4.082h-4.378
			C-77.509-55.563-77.009-55.832-76.814-55.904C-76.815-55.904-76.814-55.904-76.814-55.904L-76.814-55.904z"/>
	</g>
	<g>
		<path fill="#414141" d="M-55.854,112.49l-2.4-3.209c-6.939-9.28-11.954-20.946-14.501-33.739l-0.044-0.241
			c-2.197-13.125-4.469-26.696-4.469-38.336c0-23.2,4.758-46.168,13.759-66.421c8.368-18.832,23.25-39.249,43.035-59.043
			l2.343-2.345h35.272v13.488l-2.342,2.343C-5.606-54.598-19.313-36.146-27.104-18.601c-8.449,19.007-12.383,37.35-12.383,57.731
			c0,8.289,1.375,19.175,4.203,33.276c2.21,11.098,6.768,21.629,10.203,28.512l5.775,11.572H-55.854z"/>
		<path fill="#F6F6F6" d="M9.141-82.845v2.175c-19.598,19.608-34.845,39.207-43.556,58.821c-8.712,19.6-13.072,39.199-13.072,60.978
			c0,10.888,2.176,23.962,4.359,34.85c2.167,10.884,6.527,21.771,10.888,30.511h-19.608c-6.535-8.739-10.895-19.627-13.062-30.511
			c-2.186-13.058-4.359-26.127-4.359-37.015c0-21.792,4.359-43.574,13.069-63.172c8.712-19.606,23.96-39.207,41.382-56.637H9.141
			 M25.141-98.845h-16h-23.958h-6.629l-4.687,4.689c-20.472,20.482-35.925,41.731-44.688,61.451
			c-9.452,21.267-14.448,45.359-14.448,69.669c0,12.306,2.328,26.21,4.579,39.656l0.041,0.242l0.048,0.24
			c2.778,13.956,8.291,26.739,15.94,36.969l4.799,6.418h8.014h19.608h25.867l-11.55-23.145c-3.216-6.445-7.478-16.272-9.513-26.491
			c-2.728-13.6-4.051-23.97-4.051-31.725c0-19.222,3.715-36.533,11.692-54.479c7.388-16.636,20.553-34.301,40.251-54.01l4.684-4.686
			v-6.625v-2.175V-98.845L25.141-98.845z"/>
	</g>
	<g>
		<path fill="#414141" d="M51.604,79.811L66.742,6.552L66.894,6.1c1.72-5.142,1.772-10.504,1.772-10.558
			c0-2.039-1.203-4.395-2.034-5.233c-1.979-1.99-2.16-1.99-3.035-1.99c-1.771,0-4.375,0.954-7.671,2.163
			c-0.677,0.248-1.394,0.51-2.149,0.782c-1.306,2.016-2.828,3.966-4.41,5.992c-1.71,2.19-3.478,4.455-5.228,7.096l-0.449,0.679
			l-0.577,0.574c-2.628,2.614-4.196,7.004-4.196,11.746v0.824L26.534,77.641h-44.859L1.289-8.163
			c2.256-13.467,4.425-24.287,6.629-33.072l1.519-6.053h38.197v7.705c0.942-0.707,1.884-1.373,2.827-2
			c8.692-5.808,19.238-7.881,26.204-7.881c10.899,0,19.4,2.997,25.268,8.907c5.326,5.296,11.058,15.882,11.058,29.595
			c0,3.627-0.926,7.54-2.207,12.955c-0.709,2.995-1.512,6.389-2.317,10.402L94.039,79.811H51.604z"/>
		<path fill="#F6F6F6" d="M76.666-41.463c8.702,0,15.255,2.176,19.59,6.543c4.367,4.343,8.735,13.072,8.735,23.959
			c0,4.351-2.182,10.894-4.368,21.782L87.57,71.811H61.427L74.48,8.638c2.186-6.535,2.186-13.071,2.186-13.071
			c0-4.359-2.186-8.702-4.352-10.888c-2.169-2.182-4.367-4.359-8.718-4.359c-4.355,0-8.706,2.177-15.239,4.359
			C46.172-10.96,41.805-6.609,37.47-0.066c-4.367,4.345-6.554,10.888-6.554,17.417l-10.888,52.29H-8.29L9.141-6.609
			c2.186-13.071,4.352-23.968,6.537-32.678h23.957c0,6.545-2.165,13.08-4.351,23.965c6.521-8.71,13.073-15.255,19.606-19.598
			C61.427-39.287,70.146-41.463,76.666-41.463 M76.666-57.463c-6.855,0-14.306,1.543-21.031,4.23v-2.055h-16H15.678H3.197
			L0.159-43.181c-2.244,8.942-4.443,19.893-6.721,33.465l-17.326,75.792l-4.473,19.565h20.07h28.318H33.04l2.652-12.738
			l10.888-52.29l0.336-1.613v-1.648c0-2.917,0.953-5.193,1.838-6.074l1.154-1.148l0.899-1.357c1.578-2.382,3.249-4.522,4.865-6.592
			c1.086-1.392,2.188-2.804,3.246-4.273c0.529-0.194,1.087-0.397,1.632-0.592c-0.163,1.692-0.522,4.092-1.244,6.25l-0.303,0.904
			L58.812,5.4L45.758,68.573l-3.976,19.237h19.645H87.57h12.938l2.707-12.651l13.053-60.989l0.021-0.099l0.02-0.1
			c0.779-3.879,1.565-7.203,2.26-10.136c1.354-5.718,2.422-10.235,2.422-14.796c0-13.712-5.017-26.895-13.422-35.273
			C100.148-53.685,89.751-57.463,76.666-57.463L76.666-57.463z"/>
	</g>
	<g>
		<path fill="#414141" d="M74.78,112.49l13.653-13.656c20.383-20.388,34.092-38.843,41.911-56.419
			c8.446-18.992,12.38-37.339,12.38-57.737c0-8.229-1.373-19.118-4.197-33.29c-2.215-11.05-6.771-21.595-10.204-28.494
			l-5.754-11.564h37.442l2.214,4.413c4.373,8.716,8.894,17.727,13.457,31.338c4.817,12.235,4.817,23.995,4.817,37.597
			c0,23.236-4.753,46.206-13.744,66.425c-8.408,18.885-23.295,39.302-43.054,59.046l-2.343,2.341H74.78z"/>
		<path fill="#F6F6F6" d="M155.075-80.669c4.371,8.712,8.723,17.425,13.09,30.494c4.335,10.888,4.335,21.784,4.335,34.854
			c0,21.784-4.335,43.568-13.054,63.174c-8.722,19.59-23.961,39.213-41.398,56.638H94.091
			c19.622-19.627,34.841-39.217,43.563-58.823c8.719-19.606,13.07-39.205,13.07-60.989c0-10.886-2.182-23.965-4.352-34.854
			c-2.182-10.886-6.553-21.782-10.888-30.494H155.075 M164.948-96.669h-9.873h-19.59h-25.832l11.507,23.127
			c3.218,6.465,7.481,16.313,9.524,26.511c2.718,13.634,4.04,24.012,4.04,31.709c0,19.239-3.715,36.552-11.69,54.488
			c-7.412,16.661-20.581,34.33-40.259,54.012L55.471,120.49h38.62h23.957h6.624l4.686-4.683
			c20.445-20.43,35.904-41.678,44.706-61.447C183.509,33.119,188.5,9.025,188.5-15.322c0-13.753,0-26.752-5.296-40.332
			c-4.726-14.048-9.559-23.682-13.828-32.191L164.948-96.669L164.948-96.669z"/>
	</g>
</g>
</svg>
