<?xml version="1.0" encoding="utf-8"?>
<!-- Generator: Adobe Illustrator 16.0.0, SVG Export Plug-In . SVG Version: 6.00 Build 0)  -->
<!DOCTYPE svg PUBLIC "-//W3C//DTD SVG 1.1//EN" "http://www.w3.org/Graphics/SVG/1.1/DTD/svg11.dtd">
<svg version="1.1" id="Layer_1" xmlns="http://www.w3.org/2000/svg" xmlns:xlink="http://www.w3.org/1999/xlink" x="0px" y="0px"
	 width="452.961px" height="345.427px" viewBox="-163.795 -97.556 452.961 345.427"
	 enable-background="new -163.795 -97.556 452.961 345.427" xml:space="preserve">
<g>
	<g>
		<path fill="#414141" d="M-160.098,109.655l26.143-124.159h-17.476l5.696-25.6h17.486l3.762-15.036
			c2.501-14.824,10.357-24.118,16.055-29.825c6.285-6.276,16.813-9.591,30.45-9.591c6.775,0,13.78,0,18.765,2.493l1.872,0.936
			l-2.893,25.967l-3.85-1.931c-3.718-1.865-7.604-1.865-11.718-1.865c-4.388,0-6.264,1.047-9.104,2.633
			c-0.814,0.454-1.655,0.924-2.626,1.41c-2.87,1.438-4.876,6.601-4.876,12.555v0.486l-3.19,9.585h25.631l-5.55,27.784h-26.169
			l-26.133,124.159H-160.098z"/>
		<path fill="#F6F6F6" d="M-77.981-91.556c6.527,0,13.072,0,17.423,2.176l-2.184,19.606c-4.353-2.184-8.712-2.184-13.063-2.184
			c-6.535,0-8.718,2.184-13.071,4.359c-4.359,2.184-6.535,8.712-6.535,15.239l-4.351,13.072h26.133l-4.351,21.784h-26.143
			l-26.133,124.159H-156.4l26.143-124.159h-17.433l4.361-19.6h17.422l4.359-17.423c2.176-13.071,8.712-21.782,15.239-28.318
			C-99.763-89.38-88.877-91.556-77.981-91.556 M-77.981-97.556c-14.655,0-25.612,3.521-32.566,10.465
			c-5.98,5.989-14.212,15.735-16.877,31.334l-3.166,12.652h-12.739h-4.812l-1.045,4.697l-4.361,19.6l-1.625,7.303h7.482h10.038
			l-24.619,116.922l-1.524,7.236h7.395h26.143h4.869l1.003-4.765l25.13-119.394h21.274h4.92l0.964-4.825l4.351-21.784l1.433-7.175
			h-7.317h-17.812l1.723-5.177l0.307-0.923v-0.972c0-5.635,1.922-9.223,3.222-9.874c1.028-0.514,1.939-1.023,2.743-1.472
			c2.686-1.5,4.034-2.252,7.641-2.252c3.912,0,7.29,0,10.373,1.547l7.7,3.862l0.954-8.562l2.184-19.606l0.463-4.159l-3.743-1.872
			C-63.493-97.556-70.858-97.556-77.981-97.556L-77.981-97.556z"/>
	</g>
	<g>
		<path fill="#414141" d="M-53.35,107.49l-0.9-1.203c-6.496-8.687-11.199-19.656-13.602-31.722
			c-2.18-13.014-4.417-26.376-4.417-37.601c0-22.506,4.609-44.772,13.328-64.391c8.122-18.277,22.646-38.174,42.002-57.54
			l0.878-0.879h28.201v6.417l-0.878,0.878C-9.584-57.691-23.628-38.746-31.673-20.63c-8.742,19.667-12.813,38.656-12.813,59.76
			c0,8.623,1.407,19.83,4.301,34.26c2.317,11.634,7.06,22.605,10.631,29.761l2.166,4.34H-53.35z"/>
		<path fill="#F6F6F6" d="M9.141-82.845v2.175c-19.598,19.608-34.845,39.207-43.556,58.821c-8.712,19.6-13.072,39.199-13.072,60.978
			c0,10.888,2.176,23.962,4.359,34.85c2.167,10.884,6.527,21.771,10.888,30.511h-19.608c-6.535-8.739-10.895-19.627-13.062-30.511
			c-2.186-13.058-4.359-26.127-4.359-37.015c0-21.792,4.359-43.574,13.069-63.172c8.712-19.606,23.96-39.207,41.382-56.637H9.141
			 M15.141-88.845h-6h-23.958h-2.486l-1.757,1.758c-19.613,19.623-34.352,39.832-42.622,58.442
			C-70.57-8.645-75.269,14.042-75.269,36.965c0,11.474,2.258,24.962,4.442,38.005l0.015,0.091l0.018,0.091
			c2.489,12.502,7.379,23.89,14.141,32.932l1.8,2.407h3.005h19.608h9.7l-4.332-8.68c-3.489-6.991-8.121-17.698-10.373-29.003
			c-2.856-14.241-4.244-25.255-4.244-33.678c0-20.67,3.989-39.272,12.555-58.541c7.893-17.774,21.735-36.424,42.317-57.017
			l1.756-1.757v-2.484v-2.175V-88.845L15.141-88.845z"/>
	</g>
	<g>
		<path fill="#414141" d="M57.743,74.811L71.579,7.855l0.057-0.169c1.994-5.962,2.03-12.062,2.03-12.123
			c0-3.414-1.794-7.069-3.482-8.773c-2.202-2.215-3.596-3.47-6.587-3.47c-2.658,0-5.63,1.089-9.392,2.468
			c-1.145,0.419-2.408,0.883-3.765,1.352c-1.307,2.291-3.046,4.517-5.016,7.041c-1.686,2.16-3.597,4.608-5.454,7.411l-0.169,0.255
			l-0.216,0.215c-3.604,3.584-5.67,9.157-5.67,15.29v0.309L22.468,72.641h-34.521L6.196-7.191
			c2.242-13.401,4.393-24.14,6.571-32.826l0.57-2.27h29.297v3c0,4.005-0.74,7.944-1.772,12.583
			c4.109-4.39,8.246-7.975,12.367-10.715c6.403-4.278,15.604-7.044,23.437-7.044c9.519,0,16.825,2.5,21.719,7.43
			c4.637,4.611,9.606,13.892,9.606,26.073c0,3.044-0.869,6.718-2.072,11.803c-0.718,3.034-1.532,6.472-2.354,10.569L89.996,74.811
			H57.743z"/>
		<path fill="#F6F6F6" d="M76.666-41.463c8.702,0,15.255,2.176,19.59,6.543c4.367,4.343,8.735,13.072,8.735,23.959
			c0,4.351-2.182,10.894-4.368,21.782L87.57,71.811H61.427L74.48,8.638c2.186-6.535,2.186-13.071,2.186-13.071
			c0-4.359-2.186-8.702-4.352-10.888c-2.169-2.182-4.367-4.359-8.718-4.359c-4.355,0-8.706,2.177-15.239,4.359
			C46.172-10.96,41.805-6.609,37.47-0.066c-4.367,4.345-6.554,10.888-6.554,17.417l-10.888,52.29H-8.29L9.141-6.609
			c2.186-13.071,4.352-23.968,6.537-32.678h23.957c0,6.545-2.165,13.08-4.351,23.965c6.521-8.71,13.073-15.255,19.606-19.598
			C61.427-39.287,70.146-41.463,76.666-41.463 M76.666-47.463c-6.673,0-16.773,1.984-25.108,7.554
			c-2.047,1.36-4.095,2.917-6.139,4.667c0.139-1.347,0.216-2.687,0.216-4.045v-6h-6H15.678h-4.681l-1.139,4.54
			C7.664-32.002,5.502-21.214,3.252-7.774l-17.391,76.078l-1.677,7.337h7.526h28.318h4.88l0.994-4.777l10.888-52.29l0.126-0.604
			v-0.618c0-5.262,1.789-10.183,4.785-13.164l0.434-0.431l0.337-0.509c1.793-2.706,3.585-5.002,5.318-7.222
			c1.701-2.179,3.332-4.268,4.666-6.414c0.989-0.351,1.919-0.691,2.781-1.007c3.482-1.276,6.233-2.285,8.359-2.285
			c1.715,0,2.376,0.491,4.463,2.589c1.047,1.056,2.606,3.911,2.606,6.658c0,0.043-0.047,5.699-1.876,11.168l-0.113,0.339
			l-0.072,0.35L55.551,70.597l-1.49,7.214h7.366H87.57h4.852l1.016-4.744l13.053-60.989l0.008-0.037l0.008-0.037
			c0.813-4.047,1.62-7.459,2.332-10.47c1.25-5.283,2.153-9.1,2.153-12.494c0-13.101-5.427-23.164-10.505-28.214
			C95.037-44.665,87.013-47.463,76.666-47.463L76.666-47.463z"/>
	</g>
	<g>
		<path fill="#414141" d="M86.85,107.49l5.119-5.121c20.824-20.829,34.871-39.775,42.944-57.922
			c8.74-19.654,12.812-38.647,12.812-59.769c0-8.561-1.404-19.77-4.294-34.267c-2.323-11.593-7.063-22.574-10.631-29.744
			l-2.158-4.336h26.285l0.83,1.655c4.308,8.586,8.762,17.464,13.227,30.809C175.5-39.81,175.5-28.459,175.5-15.322
			c0,22.542-4.604,44.808-13.313,64.393c-8.16,18.329-22.69,38.227-42.02,57.541l-0.878,0.878H86.85z"/>
		<path fill="#F6F6F6" d="M155.075-80.669c4.371,8.712,8.723,17.425,13.09,30.494c4.335,10.888,4.335,21.784,4.335,34.854
			c0,21.784-4.335,43.568-13.054,63.174c-8.722,19.59-23.961,39.213-41.398,56.638H94.091
			c19.622-19.627,34.841-39.217,43.563-58.823c8.719-19.606,13.07-39.205,13.07-60.989c0-10.886-2.182-23.965-4.352-34.854
			c-2.182-10.886-6.553-21.782-10.888-30.494H155.075 M158.777-86.669h-3.702h-19.59h-9.688l4.315,8.673
			c3.487,7.007,8.117,17.727,10.377,29c2.849,14.295,4.234,25.313,4.234,33.674c0,20.688-3.988,39.292-12.553,58.55
			c-7.92,17.804-21.765,36.455-42.324,57.02L79.608,110.49h14.482h23.957h2.484l1.757-1.756
			c19.586-19.572,34.33-39.781,42.639-58.441C173.807,30.325,178.5,7.637,178.5-15.322c0-13.417,0-25.011-4.697-36.912
			c-4.523-13.505-9.018-22.462-13.364-31.126L158.777-86.669L158.777-86.669z"/>
	</g>
</g>
<path fill="#414141" stroke="#F6F6F6" stroke-width="6" stroke-miterlimit="10" d="M148.583,133.5"/>
<g>
	<polygon fill="#414141" points="193.795,238.367 193.795,162.329 117.757,162.329 117.757,145.996 193.795,145.996 193.795,69.958 
		210.128,69.958 210.128,145.996 286.166,145.996 286.166,162.329 210.128,162.329 210.128,238.367 	"/>
	<path fill="#F6F6F6" d="M207.128,72.958v76.038h76.038v10.333h-76.038v76.038h-10.333v-76.038h-76.038v-10.333h76.038V72.958
		H207.128 M213.128,66.958h-6h-10.333h-6v6v70.038h-70.038h-6v6v10.333v6h6h70.038v70.038v6h6h10.333h6v-6v-70.038h70.038h6v-6
		v-10.333v-6h-6h-70.038V72.958V66.958L213.128,66.958z"/>
</g>
</svg>
