<?xml version="1.0" encoding="utf-8"?>
<!-- Generator: Adobe Illustrator 16.0.0, SVG Export Plug-In . SVG Version: 6.00 Build 0)  -->
<!DOCTYPE svg PUBLIC "-//W3C//DTD SVG 1.1//EN" "http://www.w3.org/Graphics/SVG/1.1/DTD/svg11.dtd">
<svg version="1.1" id="Layer_1" xmlns="http://www.w3.org/2000/svg" xmlns:xlink="http://www.w3.org/1999/xlink" x="0px" y="0px"
	 width="48.889px" height="50.05px" viewBox="-17.203 -16.825 48.889 50.05" enable-background="new -17.203 -16.825 48.889 50.05"
	 xml:space="preserve">
<g>
	<path fill="#414141" d="M-9.481,24.474l1.619-4.211c-0.467-0.291-0.798-0.621-1.312-1.135c-0.283-0.282-0.79-0.785-1.164-1.354
		l-4.22,1.621l-1.986-4.762l4.243-1.63c-0.213-1.126-0.213-2.415,0-3.541l-4.243-1.63l1.986-4.767l4.212,1.621
		c0.295-0.474,0.63-0.81,1.152-1.333c0.289-0.288,0.763-0.76,1.299-1.12l-1.952-3.905l4.798-1.999l1.666,3.997h3.484l1.663-4.321
		L6.531-2.01L4.895,2.242c0.818,0.605,1.639,1.433,2.445,2.465l4.266-1.643l1.987,4.767L9.271,9.493v3.479l4.322,1.661l-1.987,4.762
		l-4.251-1.634C6.75,18.58,5.923,19.4,4.889,20.207l1.642,4.267l-4.767,1.984l-1.651-4.289c-0.163,0.027-0.332,0.069-0.507,0.113
		c-0.344,0.086-0.701,0.175-1.082,0.175c-0.506,0-1.063,0-1.634-0.171l-1.605,4.172L-9.481,24.474z M-1.476,5.487
		c-0.947,0-1.519,0-2.403,0.295c-0.499,0.255-1.116,0.871-1.712,1.466C-6.186,7.845-6.48,8.432-6.792,9.054
		c-0.368,0.735-0.588,1.609-0.588,2.338c0,0.842,0.272,1.387,0.587,2.017c0.311,0.622,0.605,1.21,1.187,1.789l0.058,0.058
		l0.037,0.073c0.182,0.364,0.798,0.645,1.293,0.87c0.142,0.064,0.278,0.127,0.403,0.188c0.753,0.45,1.474,0.668,2.179,0.668
		c0.705,0,1.427-0.218,2.146-0.648l0.119-0.071h0.138c0.755,0,1.28-0.526,1.888-1.136c0.583-0.581,0.876-1.169,1.186-1.79
		c0.58-1.453,0.58-2.901-0.017-4.393c-0.301-0.6-0.912-1.496-1.169-1.755C2.038,6.646,1.455,6.065,0.608,5.782
		C0.007,5.487-0.885,5.487-1.476,5.487z M17.095,5.168V4.987h-0.5V0.889c-0.072-0.031-0.14-0.065-0.202-0.096
		c-0.079-0.04-0.212-0.107-0.258-0.108l-0.2-0.005L15.78,0.537c-0.102-0.102-0.205-0.154-0.35-0.226
		c-0.096-0.048-0.204-0.102-0.318-0.177l-3.961,1.981l-2.76-4.342l4.042-2.359v-1.987L8.391-8.931l2.776-4.367l3.965,2.313
		c0.107-0.069,0.209-0.12,0.3-0.165c0.144-0.072,0.247-0.124,0.349-0.226c0.275-0.273,0.558-0.387,0.814-0.434v-4.517h5.165v4.675
		l1.402,0.701l4.022-2.348l2.781,4.367l-4.043,2.359v1.987l4.043,2.359l-2.781,4.367l-3.937-2.298
		c-0.487,0.42-0.985,0.684-1.488,0.789v4.536H17.095z M19.337-8.28c-0.772,0-1.303,0.228-1.889,0.813
		c-0.585,0.588-0.813,1.118-0.813,1.888s0.229,1.3,0.814,1.89c0.586,0.584,1.115,0.813,1.888,0.813s1.302-0.229,1.889-0.814
		c0.584-0.585,0.812-1.115,0.812-1.888s-0.228-1.303-0.813-1.889C20.64-8.052,20.109-8.28,19.337-8.28z"/>
	<path fill="#F6F6F6" d="M21.26-15.825v4.484c0.638,0.319,1.277,0.639,1.921,0.96l3.841-2.242l2.243,3.522l-3.842,2.242
		c0,0.32,0,0.641,0,1.281c0,0.32,0,0.642,0,1.281l3.842,2.242l-2.243,3.523l-3.841-2.242c-0.644,0.64-1.283,0.96-1.921,0.96v4.483
		h-4.165V0.505c-0.319,0-0.638-0.32-0.96-0.32c-0.318-0.32-0.64-0.32-0.961-0.64l-3.843,1.922L9.092-2.056l3.842-2.242
		c0-0.32,0-0.639,0-1.281c0-0.32,0-0.64,0-1.281L9.092-9.101l2.239-3.522l3.843,2.242c0.321-0.321,0.643-0.321,0.961-0.641
		c0.322-0.319,0.641-0.319,0.96-0.319v-4.484H21.26 M19.337-2.376c0.959,0,1.602-0.321,2.242-0.96
		c0.64-0.642,0.958-1.282,0.958-2.242s-0.318-1.601-0.958-2.242C20.938-8.46,20.296-8.78,19.337-8.78
		c-0.96,0-1.602,0.32-2.242,0.959c-0.638,0.642-0.96,1.282-0.96,2.242s0.322,1.601,0.96,2.242
		C17.735-2.697,18.377-2.376,19.337-2.376 M2.047-3.336L5.89-1.736L4.288,2.426C5.249,3.067,6.21,4.028,7.17,5.308l4.161-1.602
		l1.603,3.843l-4.163,1.6c0,1.281,0,2.884,0,4.166l4.163,1.6l-1.603,3.839l-4.161-1.6c-0.641,0.962-1.601,1.923-2.882,2.883
		l1.602,4.162l-3.843,1.6l-1.602-4.161c-0.639,0-1.28,0.319-1.92,0.319c-0.639,0-1.281,0-1.92-0.319l-1.601,4.161l-3.843-1.6
		l1.601-4.162c-0.64-0.319-0.959-0.642-1.601-1.283c-0.32-0.318-0.959-0.959-1.281-1.6l-4.163,1.6l-1.601-3.839l4.164-1.6
		c-0.321-1.282-0.321-2.885,0-4.166l-4.164-1.6l1.601-3.843l4.163,1.602c0.321-0.64,0.64-0.96,1.281-1.602
		c0.321-0.32,0.96-0.959,1.601-1.28L-9.16-1.417l3.843-1.601l1.601,3.843c1.28,0,2.881,0,4.161,0L2.047-3.336 M-1.636,17.555
		c0.801,0,1.602-0.24,2.402-0.72c0.959,0,1.601-0.64,2.242-1.283c0.639-0.637,0.959-1.277,1.279-1.92c0.64-1.599,0.64-3.201,0-4.801
		c-0.32-0.642-0.961-1.602-1.279-1.922c-0.642-0.64-1.283-1.281-2.242-1.601C0.125,4.987-0.835,4.987-1.476,4.987
		c-0.96,0-1.601,0-2.561,0.321c-0.642,0.32-1.281,0.961-1.922,1.601c-0.639,0.64-0.959,1.28-1.281,1.922
		c-0.32,0.64-0.64,1.6-0.64,2.561c0,0.96,0.32,1.6,0.64,2.24c0.321,0.643,0.642,1.283,1.281,1.92
		c0.321,0.644,1.28,0.965,1.922,1.283C-3.236,17.314-2.436,17.555-1.636,17.555 M17.095,4.668v0.319V4.668 M22.26-16.825h-1h-4.165
		h-1v1v3.645c-0.218,0.09-0.443,0.23-0.664,0.448c-0.045,0.045-0.091,0.07-0.223,0.136c-0.022,0.011-0.047,0.023-0.071,0.036
		l-3.302-1.927l-0.831-0.485l-0.517,0.812L8.248-9.638L7.69-8.761l0.897,0.523l3.346,1.952v0.707v0.707L8.588-2.92L7.69-2.396
		L8.248-1.52l2.239,3.523l0.484,0.761l0.807-0.403l3.317-1.659c0.039,0.021,0.077,0.039,0.112,0.057
		c0.132,0.066,0.178,0.091,0.218,0.131l0.293,0.294h0.341c0.012,0.005,0.023,0.011,0.035,0.017v3.467v1h1h4.165h1v-1V1.011
		c0.351-0.123,0.695-0.311,1.033-0.563l3.225,1.882l0.831,0.485l0.517-0.812l2.243-3.523l0.558-0.877L29.769-2.92l-3.346-1.952
		v-0.707v-0.707l3.346-1.952l0.898-0.524l-0.559-0.877l-2.243-3.522l-0.517-0.812l-0.831,0.485l-3.374,1.97l-0.884-0.442v-3.866
		V-16.825L22.26-16.825z M19.337-3.376c-0.64,0-1.041-0.175-1.536-0.668c-0.491-0.494-0.666-0.896-0.666-1.534
		s0.175-1.04,0.669-1.537c0.491-0.49,0.894-0.665,1.533-0.665s1.042,0.175,1.536,0.667c0.489,0.491,0.664,0.894,0.664,1.534
		s-0.175,1.043-0.666,1.536C20.378-3.551,19.977-3.376,19.337-3.376L19.337-3.376z M1.483-4.655L1.114-3.696l-1.355,3.521H-3.05
		l-1.345-3.228l-0.384-0.923l-0.923,0.384L-9.544-2.34l-0.989,0.412l0.479,0.958l1.523,3.048c-0.42,0.328-0.774,0.681-1.005,0.911
		c-0.416,0.417-0.728,0.729-0.998,1.088l-3.39-1.304l-0.908-0.35l-0.374,0.898l-1.602,3.843l-0.395,0.949l0.959,0.369l3.383,1.3
		c-0.133,0.939-0.133,1.958,0,2.898l-3.382,1.3l-0.96,0.369l0.396,0.949l1.601,3.839l0.374,0.897l0.908-0.349l3.404-1.309
		c0.302,0.396,0.65,0.761,0.976,1.084c0.413,0.413,0.722,0.722,1.075,0.988l-1.304,3.389l-0.349,0.908l0.898,0.374l3.843,1.6
		l0.949,0.396l0.369-0.959l1.264-3.284c0.467,0.083,0.912,0.083,1.324,0.083c0.443,0,0.847-0.101,1.203-0.189
		c0.025-0.006,0.05-0.013,0.074-0.019l1.313,3.409l0.369,0.959l0.948-0.396l3.843-1.6l0.898-0.374l-0.35-0.908l-1.335-3.471
		c0.813-0.661,1.495-1.333,2.036-2.008l3.45,1.326l0.907,0.349l0.374-0.897l1.603-3.839l0.396-0.949l-0.961-0.369l-3.521-1.354
		V9.836l3.521-1.353l0.96-0.369l-0.396-0.949l-1.603-3.843L11.88,2.423l-0.908,0.35l-3.47,1.336
		C6.841,3.296,6.169,2.615,5.495,2.074l1.328-3.45l0.35-0.908L6.274-2.659L2.431-4.26L1.483-4.655L1.483-4.655z M-3.648,6.233
		c0.766-0.246,1.273-0.246,2.172-0.246c0.51,0,1.365,0,1.795,0.215l0.063,0.032L0.45,6.257c0.735,0.245,1.252,0.761,1.851,1.359
		c0.199,0.2,0.763,1.015,1.074,1.625c0.526,1.34,0.526,2.644-0.001,3.982c-0.296,0.593-0.558,1.108-1.071,1.62
		c-0.614,0.615-1.015,0.991-1.537,0.991H0.49l-0.237,0.143c-0.648,0.389-1.266,0.577-1.888,0.577c-0.622,0-1.238-0.188-1.887-0.577
		l-0.034-0.021l-0.036-0.018c-0.13-0.064-0.271-0.13-0.418-0.196c-0.332-0.151-0.95-0.433-1.053-0.638l-0.073-0.146l-0.116-0.115
		c-0.523-0.521-0.787-1.049-1.092-1.659c-0.299-0.598-0.535-1.069-0.535-1.793c0-0.971,0.409-1.862,0.534-2.112
		c0.306-0.611,0.57-1.138,1.094-1.664C-4.692,7.058-4.127,6.494-3.648,6.233L-3.648,6.233z"/>
</g>
<polygon fill="#414141" stroke="#F6F6F6" stroke-miterlimit="10" points="22.9,22.125 22.9,14.154 20.9,14.154 20.9,22.125 
	12.615,22.125 12.615,24.125 20.9,24.125 20.9,32.725 22.9,32.725 22.9,24.125 31.186,24.125 31.186,22.125 "/>
</svg>
