<?xml version="1.0" encoding="utf-8"?>
<!-- Generator: Adobe Illustrator 16.0.0, SVG Export Plug-In . SVG Version: 6.00 Build 0)  -->
<!DOCTYPE svg PUBLIC "-//W3C//DTD SVG 1.1//EN" "http://www.w3.org/Graphics/SVG/1.1/DTD/svg11.dtd">
<svg version="1.1" id="Layer_1" xmlns="http://www.w3.org/2000/svg" xmlns:xlink="http://www.w3.org/1999/xlink" x="0px" y="0px"
	 width="40.829px" height="37.262px" viewBox="-12.981 -11.013 40.829 37.262"
	 enable-background="new -12.981 -11.013 40.829 37.262" xml:space="preserve">
<g>
	<path fill="#414141" d="M1.818,21.478C1.559,21.54,1.27,21.601,0.95,21.601c-0.271,0-0.575,0-0.898-0.042l-1.298,3.372
		l-4.859-2.024l1.314-3.414c-0.236-0.192-0.454-0.41-0.718-0.674c-0.174-0.174-0.442-0.441-0.701-0.763l-3.428,1.317l-2.025-4.855
		l3.453-1.328c-0.077-0.65-0.077-1.34,0-1.99l-3.453-1.326l2.024-4.86l3.416,1.314C-6.024,6.084-5.801,5.86-5.53,5.589
		c0.152-0.152,0.391-0.39,0.679-0.628L-6.446,1.77l4.924-2.052l1.383,3.32h1.908l1.377-3.581l4.715,1.965l3.382-1.974v-0.859
		L7.831-3.402l2.83-4.449l3.318,1.936c0.03-0.016,0.058-0.031,0.064-0.037c0.153-0.151,0.31-0.261,0.462-0.339v-3.72h5.264v3.896
		l0.468,0.234l3.376-1.969l2.833,4.449l-3.415,1.992v0.859l3.415,1.991l-2.833,4.449L20.376,4c-0.198,0.137-0.401,0.248-0.606,0.333
		V8.05h-4.264V7.3h-1V4.535h-0.167l-0.292-0.292c-0.01-0.009-0.065-0.038-0.108-0.059L11.665,5.32l1.896,4.553l-3.58,1.376v1.891
		l3.58,1.379l-2.024,4.854l-3.464-1.332c-0.387,0.466-0.854,0.924-1.407,1.384l1.339,3.481l-4.859,2.024L1.818,21.478z
		 M-0.667,8.476C-1.01,8.669-1.433,9.091-1.842,9.5c-0.403,0.402-0.601,0.8-0.831,1.259c-0.093,0.187-0.397,0.848-0.397,1.561
		c0,0.518,0.167,0.85,0.396,1.309c0.23,0.462,0.429,0.859,0.814,1.242l0.117,0.116l0.073,0.147c0.08,0.107,0.497,0.297,0.721,0.399
		c0.118,0.054,0.231,0.105,0.335,0.157c0.542,0.321,0.99,0.46,1.437,0.46c0.447,0,0.895-0.139,1.368-0.422l0.237-0.143h0.277
		c0.322,0,0.608-0.271,1.049-0.712c0.388-0.386,0.587-0.784,0.818-1.245c0.372-0.94,0.372-1.93-0.034-2.947
		c-0.194-0.378-0.637-1.022-0.784-1.169C3.306,9.063,2.918,8.676,2.391,8.5L2.323,8.478L2.259,8.445C1.968,8.3,1.306,8.3,0.95,8.3
		C0.253,8.3-0.111,8.3-0.667,8.476z M6.672,4.949c0.465,0.388,0.927,0.858,1.383,1.405l2.331-0.897L7.95,1.626L6.672,4.949z
		 M17.262-2.491c-0.446,0-0.701,0.112-1.049,0.459c-0.348,0.35-0.46,0.605-0.46,1.05s0.112,0.701,0.461,1.051
		c0.347,0.347,0.602,0.458,1.048,0.458c0.447,0,0.702-0.112,1.051-0.46c0.349-0.347,0.46-0.602,0.46-1.049
		c0-0.447-0.111-0.702-0.46-1.049C17.964-2.379,17.709-2.491,17.262-2.491z"/>
	<path fill="#F6F6F6" d="M18.77-9.013v3.515c0.5,0.25,1.003,0.501,1.505,0.752l3.012-1.757l1.758,2.761l-3.013,1.757
		c0,0.251,0,0.501,0,1.003c0,0.251,0,0.502,0,1.004l3.013,1.757L23.286,4.54l-3.012-1.757c-0.502,0.502-1.005,0.752-1.505,0.752
		V7.05h-3.264V3.787c-0.25,0-0.5-0.251-0.753-0.251c-0.25-0.25-0.502-0.25-0.752-0.5L10.988,4.54L9.232,1.779l3.011-1.757
		c0-0.251,0-0.501,0-1.004c0-0.251,0-0.502,0-1.003L9.232-3.742l1.756-2.761l3.013,1.757c0.25-0.25,0.502-0.25,0.752-0.502
		c0.253-0.25,0.503-0.25,0.753-0.25v-3.515H18.77 M17.262,1.528c0.753,0,1.256-0.251,1.758-0.753
		c0.503-0.502,0.753-1.004,0.753-1.757s-0.25-1.254-0.753-1.757c-0.502-0.501-1.005-0.753-1.758-0.753
		c-0.752,0-1.255,0.251-1.756,0.753c-0.5,0.502-0.753,1.004-0.753,1.757s0.253,1.255,0.753,1.757
		C16.007,1.277,16.51,1.528,17.262,1.528 M3.71,0.775l3.012,1.255L5.468,5.293C6.22,5.795,6.974,6.547,7.727,7.551l3.262-1.255
		l1.255,3.013l-3.262,1.253c0,1.005,0,2.26,0,3.265l3.262,1.256l-1.255,3.009l-3.262-1.255c-0.503,0.755-1.255,1.507-2.258,2.26
		l1.254,3.262L3.71,23.612l-1.254-3.262c-0.501,0-1.004,0.25-1.506,0.25c-0.501,0-1.003,0-1.504-0.25l-1.255,3.262l-3.012-1.255
		l1.255-3.262c-0.502-0.25-0.752-0.503-1.255-1.005c-0.25-0.25-0.752-0.753-1.003-1.255l-3.264,1.255l-1.255-3.009l3.263-1.256
		c-0.25-1.005-0.25-2.26,0-3.265l-3.263-1.253l1.255-3.013l3.264,1.255c0.251-0.501,0.501-0.753,1.003-1.255
		c0.251-0.251,0.753-0.752,1.255-1.003l-1.506-3.012l3.012-1.255l1.254,3.012c1.004,0,2.258,0,3.262,0L3.71,0.775 M0.825,17.15
		c0.627,0,1.255-0.188,1.882-0.564c0.753,0,1.255-0.503,1.757-1.006c0.501-0.498,0.752-1.001,1.004-1.504
		c0.5-1.255,0.5-2.51,0-3.765C5.217,9.81,4.714,9.058,4.464,8.807C3.962,8.305,3.46,7.802,2.707,7.551C2.205,7.3,1.452,7.3,0.95,7.3
		c-0.752,0-1.254,0-2.007,0.251C-1.56,7.802-2.061,8.305-2.563,8.807c-0.501,0.502-0.753,1.003-1.004,1.505
		c-0.251,0.502-0.502,1.255-0.502,2.008c0,0.752,0.251,1.255,0.502,1.757c0.251,0.503,0.502,1.006,1.004,1.504
		c0.251,0.503,1.003,0.756,1.505,1.006C-0.43,16.962,0.197,17.15,0.825,17.15 M15.506,7.05V7.3V7.05 M20.77-11.013h-2h-3.264h-2v2
		v1.663l-1.51-0.88L10.333-9.2L9.301-7.576L7.545-4.815L6.43-3.063l1.794,1.048l1.771,1.033L8.225,0.052L7.787,0.308L7.492,0.185
		L4.48-1.071L2.582-1.862L1.844,0.058l-0.761,1.98H0.527l-0.742-1.781L-0.983-1.59l-1.847,0.77l-3.012,1.255L-7.82,1.259
		l0.958,1.917l0.778,1.555C-6.14,4.785-6.19,4.835-6.233,4.879c-0.093,0.092-0.182,0.182-0.268,0.27l-1.87-0.719l-1.816-0.699
		l-0.748,1.796L-12.19,8.54l-0.791,1.898l1.92,0.737l1.797,0.69c-0.008,0.219-0.007,0.438,0,0.657l-1.799,0.692l-1.919,0.738
		l0.792,1.897l1.255,3.009l0.749,1.795l1.815-0.697l1.873-0.721c0.089,0.093,0.177,0.183,0.263,0.27
		c0.092,0.091,0.18,0.179,0.266,0.263l-0.72,1.869l-0.699,1.816l1.796,0.748l3.012,1.256l1.897,0.79l0.738-1.918L0.723,22.6
		c0.079,0.001,0.154,0.001,0.227,0.001c0.077,0,0.152-0.003,0.226-0.007l0.668,1.736l0.738,1.919l1.898-0.79l3.012-1.256
		l1.796-0.748L8.59,21.64l-0.74-1.923c0.178-0.164,0.347-0.329,0.507-0.495l1.914,0.735l1.815,0.699l0.748-1.796l1.255-3.009
		l0.792-1.897l-1.919-0.738l-1.98-0.763v-0.518l1.979-0.76l1.92-0.737L14.302,9.05h1.204h3.264h2v-2V5.387l1.509,0.88l1.662,0.969
		l1.033-1.623l1.758-2.761l1.116-1.754l-1.796-1.047L24.28-0.981l1.771-1.033l1.796-1.048l-1.116-1.754l-1.758-2.761L23.94-9.2
		L22.278-8.23L20.77-7.35v-1.663V-11.013L20.77-11.013z M17.262-0.472c-0.165,0-0.175,0-0.341-0.167
		c-0.168-0.168-0.168-0.182-0.168-0.343s0-0.175,0.171-0.346c0.163-0.164,0.173-0.164,0.338-0.164c0.166,0,0.177,0,0.345,0.168
		c0.166,0.166,0.166,0.176,0.166,0.342c0,0.166,0,0.176-0.166,0.341C17.438-0.472,17.428-0.472,17.262-0.472L17.262-0.472z
		 M7.853,4.666l0.318-0.829l0.716,1.125L8.346,5.17C8.183,4.993,8.018,4.825,7.853,4.666L7.853,4.666z M12.947,5.797l0.559-0.279
		V7.05v0.089L12.947,5.797L12.947,5.797z M-0.254,9.396C0.096,9.3,0.364,9.3,0.95,9.3c0.218,0,0.729,0,0.905,0.059l0.127,0.064
		l0.092,0.025c0.29,0.097,0.546,0.344,0.973,0.771c0.098,0.111,0.414,0.579,0.594,0.915c0.27,0.725,0.269,1.405-0.004,2.131
		c-0.209,0.416-0.343,0.657-0.584,0.897c-0.141,0.141-0.337,0.337-0.453,0.424H2.154L1.679,14.87
		c-0.314,0.188-0.593,0.28-0.854,0.28c-0.261,0-0.541-0.092-0.854-0.28l-0.067-0.04l-0.07-0.035
		c-0.114-0.056-0.238-0.113-0.366-0.172c-0.102-0.046-0.25-0.114-0.357-0.17l-0.03-0.061l-0.233-0.231
		c-0.257-0.256-0.391-0.511-0.624-0.978c-0.217-0.435-0.292-0.597-0.292-0.864c0-0.393,0.157-0.845,0.291-1.112
		c0.234-0.469,0.369-0.725,0.631-0.987C-0.871,9.943-0.486,9.559-0.254,9.396L-0.254,9.396z"/>
</g>
</svg>
