<?xml version="1.0" encoding="utf-8"?>
<!-- Generator: Adobe Illustrator 21.1.0, SVG Export Plug-In . SVG Version: 6.00 Build 0)  -->
<svg version="1.1" id="Layer_1" xmlns="http://www.w3.org/2000/svg" xmlns:xlink="http://www.w3.org/1999/xlink" x="0px" y="0px"
	 viewBox="0 0 24.4 31" style="enable-background:new 0 0 24.4 31;" xml:space="preserve">
<style type="text/css">
	.st0{fill:#414141;stroke:#393939;stroke-miterlimit:10;}
	.st1{fill:#414141;}
	.st2{fill:#F6F6F6;}
	.st3{fill:#414141;stroke:#F6F6F6;stroke-miterlimit:10;}
</style>
<g>
	<path class="st0" d="M0,5.3"/>
	<g>
		<polygon class="st1" points="10.1,14.1 2.4,14.1 11.2,0.5 22.3,0.5 22.3,1.3 23.2,1.3 13.7,10.3 22.1,10.3 2.2,28.6 		"/>
		<path class="st2" d="M21.8,1v0.8h0.2l-9.5,9h8.4L4.1,26.2l6.8-12.6H3.3L11.5,1H21.8 M22.8,0h-1H11.5H11l-0.3,0.5L2.5,13.1l-1,1.5
			h1.8h5.9l-6,11.2L0.4,31L4.8,27l16.7-15.5l1.9-1.7h-2.6H15l7.7-7.3l1.8-1.7h-1.7V0L22.8,0z"/>
	</g>
	<polygon class="st3" points="23.1,19.7 20,19.7 20,16.6 18,16.6 18,19.7 14.9,19.7 14.9,21.7 18,21.7 18,24.8 20,24.8 20,21.7 
		23.1,21.7 	"/>
</g>
</svg>
