<?xml version="1.0" encoding="utf-8"?>
<!-- Generator: Adobe Illustrator 16.0.0, SVG Export Plug-In . SVG Version: 6.00 Build 0)  -->
<!DOCTYPE svg PUBLIC "-//W3C//DTD SVG 1.1//EN" "http://www.w3.org/Graphics/SVG/1.1/DTD/svg11.dtd">
<svg version="1.1" id="Layer_1" xmlns="http://www.w3.org/2000/svg" xmlns:xlink="http://www.w3.org/1999/xlink" x="0px" y="0px"
	 width="316.647px" height="403.214px" viewBox="-154.431 -165.16 316.647 403.214"
	 enable-background="new -154.431 -165.16 316.647 403.214" xml:space="preserve">
<g>
	<polygon fill="#393939" points="-26.302,15.5 -122.465,15.5 -9.92,-157.66 130.155,-157.66 130.155,-147.773 143.432,-147.773 
		24.8,-35.08 129.966,-35.08 -126.597,202.106 	"/>
	<path fill="#F6F6F6" d="M122.655-150.16v9.887h1.991L6.015-27.58h104.79L-98.762,166.16L-13.756,8h-94.89L-5.85-150.16H122.655
		 M137.655-165.16h-15H-5.85h-8.141l-4.437,6.826L-121.223-0.174L-136.285,23h27.639h69.798l-73.127,136.059l-42.457,78.995
		l65.852-60.879L120.987-16.566l28.14-26.014h-38.322H43.584l91.394-86.818l27.238-25.875h-24.561V-165.16L137.655-165.16z"/>
</g>
</svg>
