<?xml version="1.0" encoding="utf-8"?>
<!-- Generator: Adobe Illustrator 21.0.0, SVG Export Plug-In . SVG Version: 6.00 Build 0)  -->
<svg version="1.1" id="Layer_1" xmlns="http://www.w3.org/2000/svg" xmlns:xlink="http://www.w3.org/1999/xlink" x="0px" y="0px"
	 viewBox="0 0 15 15" style="enable-background:new 0 0 15 15;" xml:space="preserve">
<g>
	<path style="fill:none;stroke:#393939;stroke-miterlimit:10;" d="M-0.1,2.2"/>
	<polyline style="fill:none;stroke:#393939;stroke-width:0.5;stroke-miterlimit:10;" points="10.8,0.6 10.8,2.7 12.8,2.7 	"/>
	<polyline style="fill:none;stroke:#393939;stroke-width:0.5;stroke-miterlimit:10;" points="9.3,2.1 9.3,4.1 11.3,4.1 	"/>
	<path style="fill:none;stroke:#393939;stroke-width:0.5;stroke-miterlimit:10;" d="M7.4,12c0-2.2,1.7-4.1,3.9-4.3V4.1v0l-0.5-0.5
		L9.8,2.5L9.3,2.1h0H1.3v11.3h6.3C7.5,13,7.4,12.5,7.4,12z"/>
	<path style="fill:none;stroke:#393939;stroke-width:0.5;stroke-miterlimit:10;" d="M11.4,4.1v3.6c0.1,0,0.3,0,0.4,0
		c0.3,0,0.7,0,1,0.1V2.7l-2-2.1h-8V2l6.6,0.1L11.4,4.1z"/>
	<g>
		<path style="fill:#393939;" d="M8,6.2v0.7c0,0.6,0.2,0.9,0.5,1C8.2,8.1,8,8.4,8,9v0.7c0,0.2-0.1,0.4-0.1,0.4
			c-0.1,0.1-0.2,0.1-0.4,0.1v0.5c0.1,0,0.1,0,0.1,0C7.9,10,8.3,9.4,8.8,8.9V8.8c0-0.4,0.2-0.6,0.5-0.6H9.3V7.6C9,7.6,8.8,7.4,8.8,7
			V6.3c0-0.4-0.1-0.8-0.3-1C8.3,5.1,8.1,5,7.7,5C7.7,5,7.5,5,7.5,5v0.6C7.8,5.6,8,5.8,8,6.2z"/>
		<path style="fill:#393939;" d="M5,10.8h0.1C5.1,10.8,5,10.8,5,10.8L5,10.8z"/>
		<path style="fill:#393939;" d="M4.6,10C4.6,9.9,4.5,9.8,4.5,9.6V8.9c0-0.5-0.2-0.9-0.5-1c0.3-0.1,0.5-0.4,0.5-1V6.3
			c0-0.4,0.2-0.6,0.5-0.6V5C4.6,5,4.2,5.1,4,5.4C3.7,5.6,3.7,5.8,3.7,6.3v0.7c0,0.4-0.1,0.7-0.4,0.7v0.6c0.3,0,0.5,0.2,0.5,0.6v0.8
			c0,0.5,0.1,0.7,0.3,0.9c0.2,0.2,0.5,0.3,0.9,0.3v-0.5C4.8,10.2,4.7,10.2,4.6,10z"/>
	</g>
	<g>
		<path style="fill:#393939;stroke:#393939;stroke-width:0.5;stroke-miterlimit:10;" d="M14.2,12.2H12v2.4h-0.3v-2.4H9.5v-0.3h2.2
			V9.5H12v2.4h2.2V12.2z"/>
	</g>
</g>
</svg>
