<?xml version="1.0" encoding="utf-8"?>
<!-- Generator: Adobe Illustrator 21.0.0, SVG Export Plug-In . SVG Version: 6.00 Build 0)  -->
<svg version="1.1" id="Layer_1" xmlns="http://www.w3.org/2000/svg" xmlns:xlink="http://www.w3.org/1999/xlink" x="0px" y="0px"
	 viewBox="0 0 15 15" style="enable-background:new 0 0 15 15;" xml:space="preserve">
<g>
	<polyline style="fill:none;stroke:#393939;stroke-miterlimit:10;" points="11.9,3.5 9,3.5 9,0.9 	"/>
	<g>
		<path style="fill:#393939;" d="M4.9,10.4c-0.7,0-1.1-0.3-1.1-0.9V8.6C3.8,8.2,3.7,8,3.4,8V7.5c0.3,0,0.5-0.2,0.5-0.6V6
			c0-0.6,0.4-0.9,1.1-0.9v0.5c-0.3,0-0.5,0.2-0.5,0.6V7c0,0.4-0.2,0.7-0.6,0.8v0c0.4,0.1,0.6,0.3,0.6,0.8v0.8c0,0.2,0,0.4,0.1,0.5
			c0.1,0.1,0.2,0.1,0.4,0.1V10.4z"/>
		<path style="fill:#393939;" d="M10.4,8C10,8,9.9,8.2,9.9,8.6v0.9c0,0.6-0.4,0.9-1.1,0.9V9.9c0.2,0,0.3-0.1,0.4-0.1
			c0.1-0.1,0.1-0.2,0.1-0.5V8.5c0-0.4,0.2-0.7,0.6-0.8v0C9.5,7.6,9.3,7.4,9.3,7V6.1c0-0.4-0.2-0.6-0.5-0.6V5c0.7,0,1.1,0.3,1.1,0.9
			v0.9c0,0.4,0.2,0.6,0.5,0.6V8z"/>
	</g>
	<line style="fill:none;stroke:#393939;stroke-miterlimit:10;" x1="10.7" y1="8.9" x2="10.7" y2="14.9"/>
	<line style="fill:none;stroke:#393939;stroke-miterlimit:10;" x1="7.8" y1="11.9" x2="13.6" y2="11.9"/>
	<polyline style="fill:none;stroke:#393939;stroke-miterlimit:10;" points="7,13.7 2,13.7 2,0.9 9,0.9 11.9,3.5 11.9,8.4 	"/>
</g>
</svg>
