<?xml version="1.0" encoding="utf-8"?>
<!-- Generator: Adobe Illustrator 21.0.2, SVG Export Plug-In . SVG Version: 6.00 Build 0)  -->
<svg version="1.1" id="Layer_1" xmlns="http://www.w3.org/2000/svg" xmlns:xlink="http://www.w3.org/1999/xlink" x="0px" y="0px"
	 width="16px" height="16px" viewBox="0 0 16 16" style="enable-background:new 0 0 16 16;" xml:space="preserve">
<style type="text/css">
	.st0{fill:#393939;}
	.st1{fill:#393939;stroke:#393939;stroke-width:0.5;stroke-miterlimit:10;}
</style>
<g>
	<path class="st0" d="M9.1,10.7L9.1,10.7v0.2v0.1V11l1.4,0.8l-0.8,2l-1.5-0.4C8,13.4,8,13.5,7.9,13.6l0.4,1.5l-2,0.8l-0.8-1.4H5.4
		H5.3H5.3H5.2l-0.8,1.4l-2-0.8l0.4-1.5c-0.1-0.1-0.2-0.2-0.2-0.2l-1.5,0.4L0,11.9L1.4,11V11v-0.1v-0.1v-0.1L0,9.8l0.8-2l1.5,0.4
		C2.4,8.2,2.5,8.1,2.6,8L2.2,6.5l2-0.8L5,7h0.1h0.1h0.1h0.1l0.8-1.4l2,0.8L7.7,8C7.8,8,7.9,8.1,8,8.2l1.5-0.4l0.8,2L9.1,10.7z
		 M8.5,11.3c0-0.1,0-0.2,0-0.2s0-0.2,0-0.2s0-0.2,0-0.2s0-0.2,0-0.2l1.2-0.8L9.2,8.6L7.9,8.9C7.8,8.8,7.7,8.7,7.6,8.6
		C7.4,8.4,7.4,8.3,7.2,8.2l0.3-1.4L6.5,6.4L5.7,7.6c-0.1,0-0.2,0-0.2,0C5.4,7.5,5.3,7.5,5.3,7.5c-0.2,0-0.2,0-0.3,0s-0.2,0-0.2,0
		L4,6.3L2.9,6.8l0.3,1.4C3.1,8.3,3,8.4,2.9,8.5C2.8,8.6,2.7,8.7,2.6,8.9L1.2,8.6L0.8,9.6L2,10.4c0,0.1,0,0.2,0,0.2s0,0.2,0,0.2
		S2,11,2,11c0,0.1,0,0.2,0,0.2L0.8,12l0.5,1.1l1.4-0.3c0.1,0.2,0.2,0.2,0.3,0.4c0.1,0.1,0.2,0.2,0.4,0.3l-0.3,1.4L4,15.2L4.7,14
		c0.1,0,0.2,0,0.2,0c0.1,0,0.2,0,0.2,0s0.2,0,0.2,0c0.1,0,0.2,0,0.2,0l0.8,1.2l1.1-0.5l-0.2-1.3c0.2-0.1,0.2-0.2,0.4-0.3
		c0.1-0.1,0.2-0.2,0.3-0.4l1.4,0.3l0.5-1.1L8.5,11.3z M5.3,8.9C5.6,8.9,5.8,9,6,9.1s0.5,0.2,0.6,0.4S6.9,9.8,7,10.1s0.2,0.5,0.2,0.8
		S7.1,11.3,7,11.6c-0.1,0.2-0.2,0.5-0.4,0.7c-0.2,0.2-0.4,0.3-0.6,0.4c-0.3,0.1-0.5,0.2-0.8,0.2c-0.2,0-0.5-0.1-0.8-0.2
		c-0.2-0.1-0.5-0.2-0.7-0.4c-0.2-0.2-0.3-0.5-0.4-0.7c-0.1-0.2-0.2-0.5-0.2-0.8s0.1-0.5,0.2-0.8c0.1-0.2,0.2-0.4,0.4-0.6
		C4,9.3,4.2,9.2,4.4,9.1C4.7,8.9,5,8.9,5.3,8.9z M5.3,12.2c0.2,0,0.4,0,0.5-0.1c0.2-0.1,0.3-0.2,0.4-0.3c0.2-0.2,0.2-0.3,0.3-0.5
		c0.1-0.2,0.2-0.3,0.2-0.5s-0.1-0.3-0.2-0.5C6.4,10.1,6.3,10,6.2,9.9C6,9.8,5.9,9.7,5.8,9.6C5.6,9.5,5.4,9.5,5.3,9.5s-0.4,0-0.5,0.1
		C4.5,9.7,4.4,9.8,4.3,9.9S4.1,10.1,4,10.3s-0.1,0.4-0.1,0.5s0,0.4,0.1,0.5c0.1,0.2,0.2,0.3,0.3,0.5c0.1,0.2,0.2,0.2,0.5,0.3
		C4.9,12.2,5,12.2,5.3,12.2z"/>
</g>
<g>
	<path class="st0" d="M14.8,3.1L14.8,3.1l0,0.1l0,0.1l0,0.1l1.2,0.3l-0.2,1.7l-1.2,0.1c0,0.1-0.1,0.1-0.1,0.2l0.6,1.1l-1.3,1.1
		L13,6.9l-0.1,0l-0.1,0l-0.1,0l-0.1,0l-0.3,1.2L10.7,8l-0.1-1.2c-0.1,0-0.1-0.1-0.2-0.1L9.4,7.3L8.1,6.2L9,5.2l0-0.1l0-0.1l0-0.1
		l0-0.1L7.7,4.6l0.2-1.7l1.2-0.1c0-0.1,0.1-0.1,0.1-0.2L8.5,1.6l1.3-1.1l1,0.8l0.1,0l0.1,0l0.1,0l0.1,0L11.3,0L13,0.1l0.1,1.2
		c0.1,0,0.1,0.1,0.2,0.1l1.1-0.6l1.1,1.3L14.8,3.1z M14.5,3.7c0-0.1,0-0.1-0.1-0.2c0-0.1,0-0.1-0.1-0.2c0-0.1,0-0.1-0.1-0.2
		c0-0.1,0-0.1-0.1-0.2L15,2.2l-0.6-0.7l-1,0.5c-0.1-0.1-0.2-0.1-0.3-0.2c-0.1-0.1-0.2-0.2-0.4-0.2l-0.1-1.2l-0.9,0l-0.3,1.1
		c-0.1,0-0.1,0-0.2,0.1c-0.1,0-0.1,0-0.2,0c-0.1,0-0.2,0.1-0.2,0.1c-0.1,0-0.1,0-0.2,0.1L9.8,1L9.2,1.6l0.5,1
		C9.6,2.7,9.6,2.8,9.5,2.9c0,0.1-0.1,0.2-0.1,0.4L8.3,3.4L8.2,4.3l1.1,0.3c0,0.1,0,0.1,0.1,0.2c0,0.1,0,0.1,0.1,0.2
		c0,0.1,0,0.1,0.1,0.2c0,0.1,0,0.1,0.1,0.2L8.8,6.1l0.6,0.7l1-0.5c0.1,0.1,0.2,0.1,0.3,0.2c0.1,0,0.2,0.1,0.4,0.1l0.1,1.1L12,7.8
		l0.3-1.1c0.1,0,0.1,0,0.2-0.1s0.1,0,0.2-0.1c0.1,0,0.1,0,0.2-0.1s0.1,0,0.2-0.1l0.9,0.7l0.7-0.6L14,5.7c0.1-0.1,0.1-0.2,0.2-0.3
		c0-0.1,0.1-0.2,0.1-0.4l1.1-0.1L15.6,4L14.5,3.7z M11.4,2.7c0.2-0.1,0.4-0.1,0.6-0.1c0.2,0,0.4,0.1,0.5,0.1C12.7,2.8,12.9,3,13,3.1
		c0.1,0.2,0.2,0.3,0.3,0.5s0.1,0.4,0.1,0.6c0,0.2-0.1,0.4-0.1,0.6C13.1,5,13,5.2,12.9,5.3c-0.2,0.1-0.4,0.2-0.5,0.3
		s-0.4,0.1-0.6,0.1s-0.4-0.1-0.6-0.1c-0.2-0.1-0.3-0.3-0.4-0.4c-0.1-0.2-0.2-0.3-0.3-0.5c-0.1-0.2-0.1-0.4-0.1-0.6
		c0-0.2,0.1-0.3,0.1-0.5c0.1-0.1,0.2-0.3,0.4-0.4C11,2.8,11.2,2.8,11.4,2.7z M12.2,5.1C12.4,5.1,12.5,5,12.6,5
		c0.1-0.1,0.2-0.2,0.2-0.3c0.1-0.1,0.1-0.3,0.1-0.4c0-0.1,0-0.3,0-0.4c-0.1-0.2-0.1-0.2-0.2-0.4c-0.1-0.1-0.2-0.2-0.3-0.2
		c-0.1,0-0.2-0.1-0.4-0.1c-0.2,0-0.3,0-0.4,0s-0.3,0.1-0.4,0.2C11,3.4,11,3.5,10.9,3.7S10.8,3.9,10.8,4s0,0.3,0.1,0.4S11,4.7,11,4.8
		C11.2,5,11.2,5,11.4,5.1c0.1,0.1,0.2,0.1,0.4,0.1C11.9,5.2,12,5.2,12.2,5.1z"/>
</g>
<g>
	<path class="st1" d="M15.6,13.1h-2.2v2.4h-0.3v-2.4h-2.2v-0.3h2.2v-2.4h0.3v2.4h2.2V13.1z"/>
</g>
</svg>
