<?xml version="1.0" encoding="utf-8"?>
<!-- Generator: Adobe Illustrator 21.0.2, SVG Export Plug-In . SVG Version: 6.00 Build 0)  -->
<svg version="1.1" id="Layer_1" xmlns="http://www.w3.org/2000/svg" xmlns:xlink="http://www.w3.org/1999/xlink" x="0px" y="0px"
	 width="16px" height="16px" viewBox="0 0 16 16" style="enable-background:new 0 0 16 16;" xml:space="preserve">
<style type="text/css">
	.st0{fill:#393939;stroke:#393939;stroke-width:0.5;stroke-miterlimit:10;}
	.st1{fill:#393939;}
</style>
<g>
	<path class="st0" d="M15.6,13.1h-2.2v2.4h-0.3v-2.4h-2.2v-0.3h2.2v-2.4h0.3v2.4h2.2V13.1z"/>
</g>
<g>
	<path class="st1" d="M4.4,4.5C4.2,4.4,4.1,4.4,3.9,4.4c-0.2,0-0.3,0.1-0.5,0.2C3.3,4.7,3.2,4.9,3.2,5.1L3,5.6h1L3.8,6.5h-1l-1,4.6
		h-1l1-4.6H1.2l0.2-0.7H2l0.2-0.7C2.3,4.6,2.5,4.2,2.8,4s0.7-0.3,1.1-0.3c0.2,0,0.5,0,0.7,0.1L4.4,4.5z"/>
	<path class="st1" d="M7.1,4.1C6.4,4.8,5.8,5.6,5.5,6.3C5.1,7,5,7.8,5,8.6C5,9,5.1,9.5,5.1,9.9c0.1,0.4,0.2,0.8,0.4,1.1H4.8
		c-0.2-0.3-0.4-0.7-0.5-1.1c-0.1-0.5-0.2-1-0.2-1.4c0-0.8,0.2-1.6,0.5-2.4C5,5.4,5.5,4.7,6.2,4L7.1,4.1L7.1,4.1z"/>
	<path class="st1" d="M10.7,6.7c0,0.2-0.1,0.4-0.2,0.8L10,9.8h-1l0.5-2.4c0.1-0.2,0.1-0.5,0.1-0.5c0-0.2-0.1-0.3-0.2-0.4
		C9.4,6.5,9.3,6.4,9.1,6.4C9,6.4,8.8,6.5,8.6,6.5C8.5,6.7,8.3,6.9,8.2,7.1C8,7.3,7.9,7.5,7.9,7.8l-0.4,2H6.4l0.7-2.9
		C7.2,6.4,7.3,6,7.3,5.6h0.9c0,0.2-0.1,0.5-0.2,0.9l0,0C8.3,6.2,8.6,6,8.8,5.8c0.2-0.2,0.6-0.2,0.8-0.2c0.3,0,0.6,0.1,0.7,0.2
		C10.5,6,10.7,6.3,10.7,6.7z"/>
	<path class="st1" d="M13.2,6.5c0,0.8-0.2,1.6-0.5,2.4s-0.9,1.5-1.5,2.1h-0.9c0.7-0.7,1.3-1.5,1.6-2.2c0.3-0.7,0.5-1.5,0.5-2.3
		c0-0.4-0.1-0.9-0.2-1.3S12,4.4,11.8,4.1h0.7c0.2,0.3,0.3,0.7,0.5,1.1C13.2,5.6,13.2,6,13.2,6.5z"/>
</g>
</svg>
