<?xml version="1.0" encoding="utf-8"?>
<!-- Generator: Adobe Illustrator 21.0.2, SVG Export Plug-In . SVG Version: 6.00 Build 0)  -->
<svg version="1.1" id="Layer_1" xmlns="http://www.w3.org/2000/svg" xmlns:xlink="http://www.w3.org/1999/xlink" x="0px" y="0px"
	 width="16px" height="16px" viewBox="0 0 16 16" style="enable-background:new 0 0 16 16;" xml:space="preserve">
<style type="text/css">
	.st0{fill:none;stroke:#393939;stroke-miterlimit:10;}
	.st1{fill:#393939;}
	.st2{fill:#393939;stroke:#393939;stroke-width:0.5;stroke-miterlimit:10;}
	.st3{fill:none;stroke:#393939;stroke-width:0.75;stroke-miterlimit:10;}
	.st4{fill:#FFFFFF;}
</style>
<g>
	<rect x="5.3" y="4" class="st0" width="7.5" height="2.7"/>
	<rect x="5.3" y="9.1" class="st0" width="7.5" height="2.7"/>
	<g>
		<path class="st1" d="M3.6,12.9c-1.2,0-1.7-0.6-1.7-1.8V9.5c0-0.8-0.3-1.2-0.9-1.2V7.6c0.6,0,0.9-0.4,0.9-1.2V4.7
			c0-1.2,0.6-1.8,1.7-1.8v0.7C3,3.7,2.7,4.1,2.7,4.8v1.7c0,0.8-0.3,1.3-0.9,1.5v0c0.6,0.2,0.9,0.7,0.9,1.5V11c0,0.4,0.1,0.7,0.2,0.9
			c0.1,0.2,0.4,0.3,0.7,0.3V12.9z"/>
	</g>
</g>
</svg>
