<?xml version="1.0" encoding="utf-8"?>
<!-- Generator: Adobe Illustrator 20.1.0, SVG Export Plug-In . SVG Version: 6.00 Build 0)  -->
<svg version="1.1" id="Layer_1" xmlns="http://www.w3.org/2000/svg" xmlns:xlink="http://www.w3.org/1999/xlink" x="0px" y="0px"
	 width="16px" height="16px" viewBox="0 0 16 16" style="enable-background:new 0 0 16 16;" xml:space="preserve">
<g>
	<rect x="4.6" y="0.5" style="fill:none;stroke:#393939;stroke-width:0.6;stroke-miterlimit:10;" width="3.2" height="3.2"/>
	<rect x="12.3" y="0.5" style="fill:none;stroke:#393939;stroke-width:0.6;stroke-miterlimit:10;" width="3.2" height="3.2"/>
	<rect x="12.3" y="4.4" style="fill:none;stroke:#393939;stroke-width:0.6;stroke-miterlimit:10;" width="3.2" height="3.2"/>
	<rect x="8.4" y="0.5" style="fill:none;stroke:#393939;stroke-width:0.6;stroke-miterlimit:10;" width="3.2" height="3.2"/>
	<rect x="12.3" y="8.2" style="fill:none;stroke:#393939;stroke-width:0.6;stroke-miterlimit:10;" width="3.2" height="3.2"/>
	<g>
		<circle style="fill:none;stroke:#393939;stroke-width:0.6;stroke-miterlimit:10;" cx="6.7" cy="9.4" r="2.9"/>
		<line style="fill:none;stroke:#393939;stroke-width:0.6;stroke-miterlimit:10;" x1="3.8" y1="12.3" x2="4.6" y2="11.4"/>
		
			<rect x="0.4" y="13.1" transform="matrix(0.7071 -0.7071 0.7071 0.7071 -8.9708 5.6875)" style="fill:none;stroke:#393939;stroke-width:0.6;stroke-miterlimit:10;" width="3.9" height="1.2"/>
	</g>
	<path style="fill:none;stroke:#393939;stroke-width:0.6;stroke-miterlimit:10;" d="M6.7,5.7c0.4,0,0.8,0.1,1.1,0.2V4.4H4.6v2
		C5.2,5.9,5.9,5.7,6.7,5.7z"/>
	<path style="fill:none;stroke:#393939;stroke-width:0.6;stroke-miterlimit:10;" d="M8.4,4.4v1.8C9,6.5,9.5,7,9.8,7.6h1.8V4.4H8.4z"
		/>
	<path style="fill:none;stroke:#393939;stroke-width:0.6;stroke-miterlimit:10;" d="M10.1,8.2c0.1,0.4,0.2,0.8,0.2,1.2
		c0,0.7-0.2,1.4-0.6,2h1.9V8.2H10.1z"/>
</g>
</svg>
