<?xml version="1.0" encoding="utf-8"?>
<!-- Generator: Adobe Illustrator 21.0.2, SVG Export Plug-In . SVG Version: 6.00 Build 0)  -->
<svg version="1.1" id="Layer_1" xmlns="http://www.w3.org/2000/svg" xmlns:xlink="http://www.w3.org/1999/xlink" x="0px" y="0px"
	 width="16px" height="16px" viewBox="0 0 16 16" style="enable-background:new 0 0 16 16;" xml:space="preserve">
<style type="text/css">
	.st0{fill:none;stroke:#CCCCCC;stroke-miterlimit:10;}
	.st1{fill:#CCCCCC;}
	.st2{fill:#CCCCCC;stroke:#CCCCCC;stroke-width:0.5;stroke-miterlimit:10;}
	.st3{fill:none;stroke:#CCCCCC;stroke-width:0.75;stroke-miterlimit:10;}
</style>
<polyline class="st0" points="10.9,8.3 14.8,8.3 14.8,12.7 0.6,12.7 0.6,8.3 7.8,8.3 "/>
<line class="st0" x1="4.9" y1="8.6" x2="4.9" y2="12.3"/>
<path class="st1" d="M15.3,3.3C15.2,3.1,15.1,3,15,2.9c-0.1-0.1-0.3-0.2-0.5-0.3c-0.2-0.1-0.4-0.1-0.6-0.1c-0.2,0-0.4,0-0.6,0.1
	c-0.2,0.1-0.3,0.2-0.5,0.3L7.5,8.2l-0.7,2.8l2.8-0.7L15,5c0.1-0.1,0.2-0.3,0.3-0.5c0.1-0.2,0.1-0.4,0.1-0.6
	C15.4,3.7,15.4,3.5,15.3,3.3z M14.3,4.3L9.1,9.5l-1,0.3l0.3-1l5.2-5.2c0,0,0.1-0.1,0.2-0.1c0.1,0,0.1,0,0.2,0c0.2,0,0.3,0,0.4,0.1
	c0.1,0.1,0.2,0.2,0.2,0.4C14.5,4.1,14.4,4.2,14.3,4.3z"/>
</svg>
