<?xml version="1.0" encoding="utf-8"?>
<!-- Generator: Adobe Illustrator 21.0.2, SVG Export Plug-In . SVG Version: 6.00 Build 0)  -->
<svg version="1.1" id="Layer_1" xmlns="http://www.w3.org/2000/svg" xmlns:xlink="http://www.w3.org/1999/xlink" x="0px" y="0px"
	 width="16px" height="16px" viewBox="0 0 16 16" style="enable-background:new 0 0 16 16;" xml:space="preserve">
<g>
	<path d="M16,2.7c0,0.3-0.1,0.7-0.2,1c-0.1,0.3-0.3,0.6-0.6,0.9L4.9,14.9L0,16.1l1.2-4.9L11.5,0.9c0.3-0.3,0.5-0.4,0.9-0.6
		c0.3-0.1,0.7-0.2,1-0.2c0.4,0,0.7,0.1,1,0.2c0.3,0.1,0.6,0.3,0.8,0.6c0.2,0.2,0.4,0.5,0.6,0.8C15.9,2,16,2.3,16,2.7z M1.4,14.7
		l2.6-0.6c-0.1-0.2-0.1-0.5-0.3-0.7S3.4,13,3.3,12.8c-0.2-0.2-0.4-0.3-0.6-0.4c-0.2-0.1-0.4-0.2-0.7-0.3L1.4,14.7z M2.5,11.2
		c0.6,0.2,1,0.5,1.4,0.9s0.7,0.9,0.9,1.4l8.4-8.5L11,2.8L2.5,11.2z M14,4.4c0.1-0.1,0.3-0.3,0.4-0.4c0.1-0.1,0.2-0.2,0.3-0.4
		c0.1-0.1,0.2-0.3,0.2-0.4S15,2.9,15,2.7c0-0.2,0-0.4-0.1-0.6s-0.2-0.4-0.4-0.5S14.2,1.3,14,1.2s-0.4-0.1-0.6-0.1
		c-0.2,0-0.4,0-0.5,0.1s-0.3,0.1-0.4,0.2c-0.1,0.1-0.3,0.2-0.4,0.3C12,1.8,11.8,2,11.7,2.1L14,4.4z"/>
</g>
</svg>
