<?xml version="1.0" encoding="utf-8"?>
<!-- Generator: Adobe Illustrator 21.0.0, SVG Export Plug-In . SVG Version: 6.00 Build 0)  -->
<svg version="1.1" id="Layer_1" xmlns="http://www.w3.org/2000/svg" xmlns:xlink="http://www.w3.org/1999/xlink" x="0px" y="0px"
	 width="24px" height="24px" viewBox="0 0 24 24" style="enable-background:new 0 0 24 24;" xml:space="preserve">
<g>
	<circle style="fill:none;stroke:#FFFFFF;stroke-miterlimit:10;" cx="7.8" cy="16.1" r="3.4"/>
	<line style="fill:none;stroke:#FFFFFF;stroke-miterlimit:10;" x1="4.5" y1="19.5" x2="5.5" y2="18.5"/>
	
		<rect x="0.6" y="20.4" transform="matrix(0.7071 -0.7071 0.7071 0.7071 -14.0863 8.2057)" style="fill:none;stroke:#FFFFFF;stroke-miterlimit:10;" width="4.5" height="1.4"/>
	<path style="fill:none;stroke:#FFFFFF;stroke-miterlimit:10;" d="M12,18.9h9.2V5.8V5.7l-0.6-0.6L19,3.5l-0.6-0.6h-0.1H7v8.3
		c2-0.2,3.9,0.8,4.9,2.5C12.9,15.2,12.9,17.2,12,18.9z"/>
	<g>
		<path style="fill:#FFFFFF;" d="M12.5,15L12.5,15C12.5,15,12.5,15,12.5,15C12.5,15,12.5,15,12.5,15z"/>
		<path style="fill:#FFFFFF;" d="M10.7,12.2v0.3c0.4,0.2,0.7,0.5,1,0.9c0,0,0,0,0-0.1v-0.9c0-0.8-0.3-1.2-0.8-1.4
			c0.5-0.2,0.8-0.6,0.8-1.4V8.6c0-0.5,0.3-0.8,0.8-0.8V6.8c-0.6,0-1.2,0.1-1.5,0.5c-0.4,0.3-0.5,0.7-0.5,1.3v0.9
			c0,0.6-0.2,0.9-0.6,0.9v0.8C10.4,11.3,10.6,11.6,10.7,12.2z"/>
		<path style="fill:#FFFFFF;" d="M18.5,11.4v-0.9c-0.5,0-0.8-0.3-0.8-0.8v-1c0-0.6-0.1-1.1-0.4-1.4c-0.2-0.2-0.6-0.4-1.1-0.4
			c-0.1,0-0.3,0-0.4,0v0.8c0.5,0,0.8,0.3,0.8,0.8v1c0,0.8,0.3,1.3,0.8,1.5c-0.5,0.2-0.8,0.6-0.8,1.4v1c0,0.2-0.1,0.5-0.2,0.6
			c-0.1,0.1-0.2,0.2-0.5,0.2V15c0.6,0,1.2-0.1,1.5-0.4c0.3-0.3,0.4-0.7,0.4-1.3v-1C17.8,11.7,18,11.4,18.5,11.4L18.5,11.4z"/>
	</g>
	<path style="fill:none;stroke:#FFFFFF;stroke-miterlimit:10;" d="M4.9,3"/>
	<polygon style="fill:none;stroke:#FFFFFF;stroke-miterlimit:10;" points="9.1,2.8 9.1,0.8 20.4,0.8 23.2,3.7 23.2,16.9 23.1,16.9 
		21.2,16.9 21.2,5.8 18.4,2.9 	"/>
	<polyline style="fill:none;stroke:#FFFFFF;stroke-width:0.5;stroke-miterlimit:10;" points="20.4,0.8 20.4,3.7 23.2,3.7 	"/>
	<polyline style="fill:none;stroke:#FFFFFF;stroke-width:0.5;stroke-miterlimit:10;" points="18.3,2.9 18.3,5.8 21.1,5.8 	"/>
</g>
</svg>
