<?xml version="1.0" encoding="utf-8"?>
<!-- Generator: Adobe Illustrator 21.0.0, SVG Export Plug-In . SVG Version: 6.00 Build 0)  -->
<svg version="1.1" id="Layer_1" xmlns="http://www.w3.org/2000/svg" xmlns:xlink="http://www.w3.org/1999/xlink" x="0px" y="0px"
	 width="24px" height="24px" viewBox="0 0 24 24" style="enable-background:new 0 0 24 24;" xml:space="preserve">
<g>
	<path style="fill:#FFFFFF;" d="M12.1,0c1.1,0,2.1,0.1,3.1,0.4c1,0.3,2,0.7,2.8,1.2c0.9,0.5,1.7,1.1,2.4,1.9
		c0.7,0.7,1.3,1.5,1.9,2.4c0.5,0.9,0.9,1.8,1.2,2.8c0.3,1,0.4,2.1,0.4,3.1S23.9,14,23.6,15c-0.3,1-0.7,2-1.2,2.8
		c-0.5,0.9-1.1,1.7-1.9,2.4s-1.5,1.3-2.4,1.9c-0.9,0.5-1.8,0.9-2.8,1.2c-1,0.3-2.1,0.4-3.1,0.4S10,23.5,9,23.3c-1-0.3-2-0.7-2.8-1.2
		c-0.9-0.5-1.7-1.1-2.4-1.9c-0.7-0.7-1.3-1.5-1.9-2.4C1.4,16.9,1,16,0.7,15s-0.4-2.1-0.4-3.2c0-1.1,0.1-2.1,0.4-3.1s0.7-2,1.2-2.8
		C2.4,5,3,4.2,3.8,3.5c0.7-0.7,1.5-1.3,2.4-1.9C7,1.1,8,0.7,9,0.4C10,0.1,11.1,0,12.1,0z M12.1,22.2c0.9,0,1.9-0.1,2.7-0.4
		c0.9-0.2,1.7-0.6,2.5-1s1.5-1,2.1-1.6c0.6-0.6,1.2-1.3,1.6-2.1s0.8-1.6,1-2.5c0.2-0.9,0.4-1.8,0.4-2.8c0-0.9-0.1-1.9-0.4-2.7
		s-0.6-1.7-1-2.5s-1-1.5-1.6-2.1c-0.6-0.6-1.3-1.2-2.1-1.6c-0.8-0.5-1.6-0.8-2.5-1c-0.9-0.2-1.8-0.4-2.7-0.4s-1.9,0.1-2.7,0.4
		s-1.7,0.6-2.5,1c-0.8,0.5-1.5,1-2.1,1.6C4.2,5.1,3.6,5.8,3.2,6.6c-0.5,0.8-0.8,1.6-1,2.5c-0.2,0.9-0.4,1.8-0.4,2.7
		c0,0.9,0.1,1.9,0.4,2.7c0.2,0.9,0.6,1.7,1,2.5c0.5,0.8,1,1.5,1.6,2.1c0.6,0.6,1.3,1.2,2.1,1.6s1.6,0.8,2.5,1
		C10.3,22.1,11.2,22.2,12.1,22.2z M12.1,17.8c0.6,0,1.1-0.1,1.6-0.2s1-0.4,1.5-0.7c0.5-0.3,0.9-0.6,1.2-1c0.4-0.4,0.7-0.9,0.9-1.4
		l1.3,0.7c-0.3,0.6-0.7,1.2-1.2,1.7s-1,0.9-1.6,1.3c-0.6,0.4-1.2,0.6-1.8,0.8c-0.7,0.2-1.3,0.3-2,0.3c-0.7,0-1.4-0.1-2-0.3
		c-0.7-0.2-1.3-0.5-1.8-0.8c-0.6-0.4-1.1-0.8-1.6-1.3s-0.9-1.1-1.2-1.7l1.3-0.7c0.3,0.5,0.6,1,0.9,1.4c0.4,0.4,0.8,0.8,1.2,1
		c0.5,0.3,0.9,0.5,1.5,0.7C11,17.7,11.6,17.8,12.1,17.8z M7.7,10.4c-0.2,0-0.4,0-0.6-0.1c-0.2-0.1-0.3-0.2-0.5-0.3
		C6.5,9.8,6.4,9.6,6.3,9.5C6.3,9.3,6.2,9.1,6.2,8.9s0-0.4,0.1-0.6C6.4,8.1,6.5,8,6.7,7.8c0.1-0.1,0.3-0.2,0.5-0.3
		c0.2-0.1,0.4-0.1,0.6-0.1c0.2,0,0.4,0,0.6,0.1c0.2,0.1,0.3,0.2,0.5,0.3C8.9,8,9,8.1,9.1,8.3c0.1,0.2,0.1,0.4,0.1,0.6s0,0.4-0.1,0.6
		C9,9.6,8.9,9.8,8.8,9.9s-0.3,0.2-0.5,0.3C8.1,10.3,7.9,10.4,7.7,10.4z M16.6,10.4c-0.2,0-0.4,0-0.6-0.1c-0.2-0.1-0.3-0.2-0.5-0.3
		s-0.2-0.3-0.3-0.5c-0.1-0.2-0.1-0.4-0.1-0.6s0-0.4,0.1-0.6c0.1-0.2,0.2-0.3,0.3-0.5c0.1-0.1,0.3-0.2,0.5-0.3
		c0.2-0.1,0.4-0.1,0.6-0.1c0.2,0,0.4,0,0.6,0.1c0.2,0.1,0.3,0.2,0.5,0.3C17.8,8,17.9,8.1,18,8.3c0.1,0.2,0.1,0.4,0.1,0.6
		s0,0.4-0.1,0.6c-0.1,0.2-0.2,0.3-0.3,0.5c-0.1,0.1-0.3,0.2-0.5,0.3C17,10.3,16.8,10.4,16.6,10.4z"/>
</g>
</svg>
