<?xml version="1.0" encoding="utf-8"?>
<!-- Generator: Adobe Illustrator 21.0.2, SVG Export Plug-In . SVG Version: 6.00 Build 0)  -->
<svg version="1.1" id="Layer_1" xmlns="http://www.w3.org/2000/svg" xmlns:xlink="http://www.w3.org/1999/xlink" x="0px" y="0px"
	 width="16px" height="16px" viewBox="0 0 16 16" style="enable-background:new 0 0 16 16;" xml:space="preserve">
<style type="text/css">
	.st0{fill:#393939;}
</style>
<g>
	<path class="st0" d="M13.9,0.2c0.2,0,0.5,0,0.7,0.1c0.2,0.1,0.4,0.2,0.6,0.4s0.3,0.4,0.4,0.6c0.1,0.2,0.1,0.5,0.1,0.7
		c0,0.2,0,0.4-0.1,0.6c-0.1,0.2-0.1,0.3-0.3,0.5s-0.2,0.3-0.4,0.4c-0.1,0.1-0.3,0.3-0.4,0.4v11.3H0.7V1.3H12
		c0.1-0.1,0.3-0.3,0.4-0.4c0.1-0.1,0.3-0.3,0.4-0.4c0.1-0.1,0.3-0.2,0.5-0.3C13.4,0.2,13.6,0.2,13.9,0.2z M13.4,5l-7,7L3,12.9
		l0.8-3.4l7-7h-9V14h11.5V5z M13.9,1.3c-0.2,0-0.3,0.1-0.5,0.2l-8.5,8.5l-0.3,1.2L5.8,11l8.5-8.5c0.1-0.1,0.2-0.3,0.2-0.5
		c0-0.2-0.1-0.3-0.2-0.5S14,1.3,13.9,1.3z"/>
</g>
</svg>
