<?xml version="1.0" encoding="utf-8"?>
<!-- Generator: Adobe Illustrator 21.0.0, SVG Export Plug-In . SVG Version: 6.00 Build 0)  -->
<svg version="1.1" id="Layer_1" xmlns="http://www.w3.org/2000/svg" xmlns:xlink="http://www.w3.org/1999/xlink" x="0px" y="0px"
	 width="24px" height="15px" viewBox="0 0 24 15" style="enable-background:new 0 0 24 15;" xml:space="preserve">
<g>
	<polygon style="fill:#FFFFFF;" points="13.1,5.1 16.7,5.1 9.7,12.1 8.1,12.1 10.2,7.9 7.8,7.9 11.3,0.9 15.2,0.9 	"/>
	<path style="fill:none;stroke:#FFFFFF;stroke-miterlimit:10;" d="M12.7,0.9c0.7,0,1.4,0.1,2,0.4c0.6,0.3,1.2,0.6,1.7,1
		c0.5,0.4,0.9,1,1.2,1.6c0.3,0.6,0.5,1.3,0.6,2l0.2,1.4h1.4c0.5,0,0.9,0.1,1.3,0.2c0.4,0.2,0.7,0.4,1,0.7c0.3,0.3,0.5,0.6,0.7,1
		c0.2,0.4,0.2,0.8,0.2,1.3c0,0.5-0.1,0.9-0.2,1.2c-0.2,0.4-0.4,0.7-0.7,1c-0.3,0.3-0.6,0.5-1,0.7c-0.4,0.2-0.8,0.2-1.2,0.2H5.5
		c-0.7,0-1.3-0.1-1.9-0.4c-0.6-0.3-1.1-0.6-1.5-1c-0.4-0.4-0.8-0.9-1-1.5c-0.3-0.6-0.4-1.2-0.4-1.9S0.8,7.6,1.1,7
		c0.3-0.6,0.6-1.1,1-1.5c0.4-0.4,0.9-0.8,1.5-1c0.6-0.3,1.2-0.4,1.9-0.4c0.3,0,0.6,0,0.9,0.1l1.1,0.2L8,3.5c0.3-0.4,0.6-0.8,0.9-1.1
		C9.3,2.1,9.6,1.8,10,1.6c0.4-0.2,0.8-0.4,1.3-0.5C11.8,1,12.2,0.9,12.7,0.9"/>
</g>
</svg>
