<?xml version="1.0" encoding="utf-8"?>
<!-- Generator: Adobe Illustrator 21.0.2, SVG Export Plug-In . SVG Version: 6.00 Build 0)  -->
<svg version="1.1" id="Layer_1" xmlns="http://www.w3.org/2000/svg" xmlns:xlink="http://www.w3.org/1999/xlink" x="0px" y="0px"
	 width="16px" height="16px" viewBox="0 0 16 16" style="enable-background:new 0 0 16 16;" xml:space="preserve">
<style type="text/css">
	.st0{fill:#393939;}
</style>
<g>
	<path class="st0" d="M12.3,3.9h0.5l-2,1.6l0.8,1l3.9-3.2L11.6,0l-0.8,1l2,1.7h-0.6c-4.1,0-5.7,3.1-7.1,5.6C5.1,8.4,5.1,8.5,5,8.6
		l0,0C5,8.7,4.9,8.8,4.8,9c-1.4,2.6-2.6,3.3-4.4,3.3v1.3c1.5,0,2.3-0.4,2.8-0.7c1-0.6,1.8-1.7,2.7-3.2C6,9.4,6.1,9.3,6.1,9.2l0,0
		C6.2,9.1,6.3,9,6.3,8.9C7.6,6.4,9,3.9,12.3,3.9z"/>
	<path class="st0" d="M11.6,9.5l-0.8,1l2,1.6h-0.5c-2.8,0-4.2-1.8-5.3-3.8L6.3,9.6c1.2,2,2.9,3.7,6,3.7h0.6l-2,1.7l0.8,1l3.9-3.3
		L11.6,9.5z"/>
	<path class="st0" d="M4.8,7C4.9,7.2,5,7.3,5,7.4l0,0c0,0.1,0.1,0.2,0.1,0.3c0.2-0.4,0.5-0.9,0.7-1.3C5.1,4.9,4.3,3.8,3.3,3.2
		C2.7,2.9,1.9,2.5,0.5,2.5v1.3C2.2,3.8,3.5,4.5,4.8,7z"/>
</g>
</svg>
