<?xml version="1.0" encoding="utf-8"?>
<!-- Generator: Adobe Illustrator 21.0.2, SVG Export Plug-In . SVG Version: 6.00 Build 0)  -->
<svg version="1.1" id="Layer_1" xmlns="http://www.w3.org/2000/svg" xmlns:xlink="http://www.w3.org/1999/xlink" x="0px" y="0px"
	 width="16px" height="16px" viewBox="0 0 16 16" style="enable-background:new 0 0 16 16;" xml:space="preserve">
<style type="text/css">
	.st0{fill:none;stroke:#000000;stroke-linejoin:bevel;stroke-miterlimit:10;}
	.st1{fill:#393939;}
</style>
<path class="st0" d="M-16.2-4.6"/>
<g>
	<path class="st1" d="M8.6,0C9.1,0,9.6,0,10,0.2c0.5,0.1,0.9,0.3,1.3,0.6c0.4,0.2,0.8,0.5,1.1,0.9c0.3,0.3,0.6,0.7,0.9,1.1
		s0.4,0.8,0.6,1.3c0.1,0.5,0.2,0.9,0.2,1.4c0,0.7-0.1,1.4-0.4,2.1S13,8.8,12.5,9.3l-6.5,6.5l-0.7-0.7l6.5-6.5c0.4-0.4,0.7-0.9,1-1.4
		s0.3-1.1,0.3-1.7c0-0.6-0.1-1.2-0.4-1.7c-0.2-0.5-0.6-1-1-1.4s-0.9-0.7-1.4-1C9.8,1.1,9.2,1,8.6,1C8,1,7.5,1.1,7.1,1.2
		C6.7,1.4,6.3,1.6,5.9,1.9C5.5,2.2,5.2,2.5,4.9,2.9C4.5,3.2,4.2,3.6,3.8,3.9h3.3v1h-5v-5h1v3.3c0.3-0.3,0.6-0.6,0.8-0.8
		c0.3-0.3,0.5-0.5,0.8-0.8C5,1.4,5.2,1.2,5.5,1c0.3-0.2,0.6-0.4,0.9-0.5c0.3-0.1,0.6-0.3,1-0.3C7.8,0,8.2,0,8.6,0z"/>
</g>
</svg>
