<?xml version="1.0" encoding="utf-8"?>
<!-- Generator: Adobe Illustrator 21.0.2, SVG Export Plug-In . SVG Version: 6.00 Build 0)  -->
<svg version="1.1" id="Layer_1" xmlns="http://www.w3.org/2000/svg" xmlns:xlink="http://www.w3.org/1999/xlink" x="0px" y="0px"
	 width="16px" height="16px" viewBox="0 0 16 16" style="enable-background:new 0 0 16 16;" xml:space="preserve">
<g>
	<path d="M8,0.5c0.7,0,1.4,0.1,2,0.3s1.2,0.4,1.8,0.8s1.1,0.7,1.5,1.2c0.5,0.5,0.8,1,1.2,1.5C14.8,4.7,15,5.3,15.2,6
		c0.2,0.6,0.3,1.3,0.3,2s-0.1,1.4-0.3,2c-0.2,0.6-0.4,1.2-0.8,1.8c-0.3,0.6-0.7,1.1-1.2,1.5c-0.5,0.5-1,0.8-1.5,1.2
		c-0.6,0.3-1.2,0.6-1.8,0.8c-0.6,0.2-1.3,0.3-2,0.3c-0.3,0-0.5,0-0.7-0.2c-0.2-0.1-0.4-0.2-0.6-0.4c-0.2-0.2-0.3-0.4-0.4-0.6
		c-0.1-0.2-0.1-0.5-0.1-0.7c0-0.2,0-0.4,0.1-0.6c0-0.2,0.1-0.3,0.2-0.5s0.1-0.3,0.2-0.4s0.2-0.3,0.2-0.4c0.1-0.1,0.1-0.3,0.2-0.4
		C7,11.1,7,11,7,10.8c0-0.3-0.1-0.5-0.2-0.7S6.6,9.6,6.5,9.5C6.3,9.3,6.1,9.2,5.9,9.1C5.6,9,5.4,8.9,5.1,8.9C5,8.9,4.8,8.9,4.6,9
		S4.4,9.1,4.2,9.2S4,9.3,3.8,9.4S3.6,9.5,3.4,9.6S3.1,9.7,2.9,9.8c-0.2,0-0.4,0.1-0.6,0.1c-0.3,0-0.5,0-0.7-0.2
		C1.4,9.6,1.2,9.5,1,9.3S0.7,8.9,0.6,8.7S0.5,8.2,0.5,8c0-0.7,0.1-1.4,0.3-2s0.4-1.2,0.8-1.8s0.7-1.1,1.2-1.5s1-0.8,1.5-1.2
		S5.3,0.9,6,0.7S7.3,0.5,8,0.5z M8,14.5c0.6,0,1.2-0.1,1.7-0.2c0.6-0.2,1.1-0.4,1.6-0.7c0.5-0.3,0.9-0.6,1.3-1s0.7-0.8,1-1.3
		c0.3-0.5,0.5-1,0.7-1.6c0.2-0.6,0.2-1.1,0.2-1.7s-0.1-1.2-0.2-1.7s-0.4-1.1-0.7-1.6c-0.3-0.5-0.6-0.9-1-1.3c-0.4-0.4-0.8-0.7-1.3-1
		c-0.5-0.3-1-0.5-1.6-0.7C9.1,1.5,8.6,1.4,8,1.4S6.8,1.5,6.2,1.6C5.7,1.8,5.1,2,4.6,2.3s-0.9,0.6-1.3,1c-0.4,0.4-0.7,0.8-1,1.3
		s-0.5,1-0.7,1.6S1.4,7.4,1.4,8c0,0.1,0,0.3,0.1,0.4s0.1,0.2,0.2,0.3S1.8,8.8,2,8.8s0.2,0.1,0.4,0.1c0.2,0,0.4,0,0.5-0.1
		s0.3-0.1,0.4-0.2s0.3-0.1,0.4-0.2S3.9,8.3,4,8.2S4.3,8.1,4.5,8S4.9,8,5.1,8C5.5,8,5.9,8,6.2,8.2s0.6,0.3,0.9,0.6s0.5,0.6,0.6,0.9
		S8,10.4,8,10.8c0,0.2,0,0.5-0.1,0.6c0,0.2-0.1,0.3-0.2,0.5c-0.1,0.1-0.1,0.3-0.2,0.4c-0.1,0.1-0.2,0.3-0.2,0.4
		c-0.1,0.1-0.1,0.3-0.2,0.4C7,13.3,7,13.4,7,13.6c0,0.1,0,0.3,0.1,0.4s0.1,0.2,0.2,0.3c0.1,0.1,0.2,0.2,0.3,0.2S7.8,14.5,8,14.5z
		 M4.2,5.2c0.1,0,0.3,0,0.4,0.1s0.2,0.1,0.3,0.2S5,5.6,5.1,5.7S5.1,6,5.1,6.1s0,0.3-0.1,0.4S4.9,6.7,4.9,6.8S4.7,6.9,4.6,7
		S4.3,7,4.2,7S3.9,7,3.8,7S3.6,6.9,3.5,6.8S3.4,6.6,3.3,6.5S3.3,6.2,3.3,6.1s0-0.3,0.1-0.4s0.1-0.2,0.2-0.3s0.2-0.2,0.3-0.2
		S4.1,5.2,4.2,5.2z M7,3.3c0.1,0,0.3,0,0.4,0.1c0.1,0,0.2,0.1,0.3,0.2s0.2,0.2,0.2,0.3S8,4.1,8,4.2s0,0.3-0.1,0.4S7.8,4.8,7.7,4.9
		S7.5,5,7.4,5.1S7.1,5.2,7,5.2s-0.3,0-0.4-0.1S6.4,5,6.3,4.9S6.2,4.7,6.1,4.6S6.1,4.4,6.1,4.2s0-0.3,0.1-0.4s0.1-0.2,0.2-0.3
		s0.2-0.2,0.3-0.2C6.8,3.3,6.9,3.3,7,3.3z M9.8,10.8c0.1,0,0.3,0,0.4,0.1s0.2,0.1,0.3,0.2c0.1,0.1,0.2,0.2,0.2,0.3s0.1,0.2,0.1,0.4
		s0,0.3-0.1,0.4s-0.1,0.2-0.2,0.3c-0.1,0.1-0.2,0.2-0.3,0.2s-0.2,0.1-0.4,0.1s-0.3,0-0.4-0.1s-0.2-0.1-0.3-0.2
		C9.1,12.3,9,12.2,9,12.1s-0.1-0.2-0.1-0.4s0-0.3,0.1-0.4s0.1-0.2,0.2-0.3c0.1-0.1,0.2-0.2,0.3-0.2S9.7,10.8,9.8,10.8z M10.8,6.1
		c-0.1,0-0.3,0-0.4-0.1s-0.2-0.1-0.3-0.2C10,5.7,9.9,5.6,9.9,5.5S9.8,5.3,9.8,5.2s0-0.3,0.1-0.4s0.1-0.2,0.2-0.3
		c0.1-0.1,0.2-0.2,0.3-0.2s0.2-0.1,0.4-0.1s0.3,0,0.4,0.1s0.2,0.1,0.3,0.2c0.1,0.1,0.2,0.2,0.2,0.3s0.1,0.2,0.1,0.4s0,0.3-0.1,0.4
		s-0.1,0.2-0.2,0.3C11.3,5.9,11.2,6,11.1,6S10.9,6.1,10.8,6.1z M11.7,8C11.8,8,12,8,12.1,8s0.2,0.1,0.3,0.2c0.1,0.1,0.2,0.2,0.2,0.3
		s0.1,0.2,0.1,0.4s0,0.3-0.1,0.4s-0.1,0.2-0.2,0.3c-0.1,0.1-0.2,0.2-0.3,0.2s-0.2,0.1-0.4,0.1s-0.3,0-0.4-0.1S11.1,9.7,11,9.6
		c-0.1-0.1-0.2-0.2-0.2-0.3S10.8,9,10.8,8.9s0-0.3,0.1-0.4S11,8.3,11,8.3c0.1-0.1,0.2-0.2,0.3-0.2S11.6,8,11.7,8z"/>
</g>
</svg>
