<?xml version="1.0" encoding="utf-8"?>
<!-- Generator: Adobe Illustrator 21.0.0, SVG Export Plug-In . SVG Version: 6.00 Build 0)  -->
<svg version="1.1" id="Layer_1" xmlns="http://www.w3.org/2000/svg" xmlns:xlink="http://www.w3.org/1999/xlink" x="0px" y="0px"
	 width="16px" height="16px" viewBox="0 0 16 16" style="enable-background:new 0 0 16 16;" xml:space="preserve">
<g>
	<polygon style="fill:#3176BA;" points="14.3,2.1 13,0.8 12.4,0.3 12.4,0.3 2.8,0.3 2.8,14 14.9,14 14.9,2.7 14.9,2.7 	"/>
	<polygon style="fill:#F4F4F4;" points="12.4,0.8 3.3,0.8 3.3,13.5 14.3,13.5 14.3,2.7 13.6,2.7 12.4,2.7 	"/>
	<polygon style="fill:#3176BA;" points="12.6,3.8 11.3,2.5 10.8,2 10.7,2 1.1,2 1.1,15.7 13.2,15.7 13.2,4.5 13.2,4.4 	"/>
	<polygon style="fill:#FFFFFF;enable-background:new    ;" points="10.7,2.5 1.6,2.5 1.6,15.2 12.6,15.2 12.6,4.5 11.9,4.5 10.7,4.5"/>
</g>
</svg>
