<svg xmlns="http://www.w3.org/2000/svg" viewBox="0 0 50 50" enable-background="new 0 0 50 50"><path fill="#0072C6" d="M47 33v14h-38v-6h20v-8h18zm-14-22h-14v8h14v-8zm-14-10h-18v10h18v-10zm0 18h-12v8h12v-8zm-8 10h-8v6h8v-6z"/><path fill="#fff" d="M47 17v14h-18v-6h10v-8h8zm-20 16h-8v6h8v-6z"/><path fill="#A0A1A2" d="M37 15v8h-10v8h-10v8h-10v8.5c0 .828.672 1.5 1.5 1.5h39c.828 0 1.5-.672 1.5-1.5v-32.5h-12zm-8 10h8v6h-8v-6zm8 14h-8v-6h8v6zm-18-6h8v6h-8v-6zm-2 14h-8v-6h8v6zm10 0h-8v-6h8v6zm10 0h-8v-6h8v6zm10 0h-8v-6h8v6zm0-8h-8v-6h8v6zm0-8h-8v-6h8v6zm-8-8v-6h8v6h-8z"/><path fill="#7A7A7A" d="M49 15h-12v-6h10.5c.828 0 1.5.672 1.5 1.5v4.5z"/><rect x="1" y="1" opacity=".1" fill="#fff" enable-background="new" width="18" height="10"/><path opacity=".1" fill="#fff" enable-background="new" d="M37 19v-10h10l-10 10zm-10 10l6-6h-6v6zm-10 2v8l8-8h-8zm-10 8v10l10-10h-10zm26-20h-14v-8h14v8zm-14-8h-18v-10h18v10zm0 16h-12v-8h12v8zm-8 8h-8v-6h8v6z"/></svg>