<svg xmlns="http://www.w3.org/2000/svg" viewBox="0 0 50 50" enable-background="new 0 0 50 50"><path fill="#7A7A7A" d="M7 19h12v8h-12v-8zm26 0v-8h-14v8h14zm-14-18h-18v10h18v-10zm-8 28h-8v6h8v-6zm38-19.859v38.359c0 .828-.672 1.5-1.5 1.5h-39c-.828 0-1.5-.672-1.5-1.5v-8.5h10v-8h10v-8h10v-14h11.859c.078 0 .141.063.141.141zm-32 31.859h-8v6h8v-6zm10 0h-8v6h8v-6zm0-8h-8v6h8v-6zm10 8h-8v6h8v-6zm0-8h-8v6h8v-6zm0-8h-8v6h8v-6zm10 16h-8v6h8v-6zm0-8h-8v6h8v-6zm0-8h-8v6h8v-6zm0-8h-8v6h8v-6zm-28-16h-18v10h18v-10z"/></svg>