<svg xmlns="http://www.w3.org/2000/svg" viewBox="0 0 24 24"><style>.icon-canvas-transparent{opacity:0;fill:#f6f6f6}.icon-white{fill:#fff}</style><path class="icon-canvas-transparent" d="M24 0v24H0V0h24z" id="canvas"/><g id="iconBg"><path class="icon-white" d="M24 0v12h-3.586L17 15.414V12h-2.525a6.693 6.693 0 0 0-.46-2H22V2H11v4.587a6.707 6.707 0 0 0-2-.716V0h15zm-8.5 24H14c0-3.446-2.804-6.25-6.25-6.25S1.5 20.554 1.5 24H0c0-3.229 1.986-6 4.799-7.163A5.246 5.246 0 0 1 2.5 12.5c0-2.895 2.355-5.25 5.25-5.25S13 9.605 13 12.5a5.246 5.246 0 0 1-2.299 4.337C13.514 18 15.5 20.771 15.5 24zm-4-11.5c0-2.068-1.682-3.75-3.75-3.75S4 10.432 4 12.5c0 2.067 1.682 3.75 3.75 3.75s3.75-1.683 3.75-3.75z"/></g></svg>