<svg xmlns="http://www.w3.org/2000/svg" viewBox="0 0 24 24"><style>.icon-canvas-transparent{opacity:0;fill:#f6f6f6}.icon-white{fill:#fff}</style><path class="icon-canvas-transparent" d="M24 0v24H0V0h24z" id="canvas"/><g id="iconBg"><path class="icon-white" d="M15.295 13.905c1.998-1.15 3.361-3.282 3.361-5.748A6.664 6.664 0 0 0 12 1.5a6.664 6.664 0 0 0-6.656 6.656c0 2.466 1.364 4.598 3.361 5.748-3.5 1.294-5.944 4.601-5.982 8.595h1.505c.05-4.318 3.441-7.688 7.772-7.688 4.404 0 7.724 3.3 7.772 7.688h1.504c-.037-3.993-2.481-7.3-5.981-8.594zM6.844 8.156C6.844 5.313 9.157 3 12 3s5.156 2.313 5.156 5.156-2.313 5.157-5.156 5.157S6.844 11 6.844 8.156z"/></g></svg>