<svg id="Layer_1" xmlns="http://www.w3.org/2000/svg" viewBox="0 0 19 19"><style>.icon-asx-blue{fill:#0081e4}.canvas{opacity:0;fill:#f6f6f6}</style><path class="canvas" d="M19 19H0V0h19v19z"/><path class="icon-asx-blue" d="M3.5 4a.5.5 0 1 1 0 1 .5.5 0 0 1 0-1zm5 0c-2.206 0-4 1.794-4 4 0 2.035 1.532 3.7 3.5 3.949v-1A2.997 2.997 0 0 1 5.5 8c0-1.654 1.346-3 3-3s3 1.346 3 3h1c0-2.206-1.794-4-4-4zM8 13H1V3h4.207l1-1h4.586l1 1H16v7h1V2h-4.793l-1-1H5.793l-1 1H0v12h8v-1zm11 0v6h-6v-2h-2v-2H9V9h6v2h2v2h2zm-8 1v-3h3v-1h-4v4h1zm2-1h3v-1h-4v4h1v-3zm5 1h-4v4h4v-4z"/></svg>